<svg enable-background="new 0 0 696.9 251.1" viewBox="0 0 696.9 251.1" xmlns="http://www.w3.org/2000/svg"><path d="m134.1 113.9h2.4v45.6h-2.4z"/><path d="m171.8 169.7h45.6v2.4h-45.6z" transform="matrix(.8661 -.4998 .4998 .8661 -59.3742 120.1304)"/><path d="m193.4 79.6h2.4v45.6h-2.4z" transform="matrix(.5004 -.8658 .8658 .5004 8.4969 219.6575)"/><path d="m33.9 193.7h38.5v2.4h-38.5z" transform="matrix(.8662 -.4997 .4997 .8662 -90.2924 52.6473)"/><path d="m44.3 211.7h38.5v2.4h-38.5z" transform="matrix(.8661 -.4998 .4998 .8661 -97.8989 60.2543)"/><path d="m257.5 87.6-32.8 18.9-49.1-28.3-.8-.5-.8.5-49.1 28.3-48.2-27.9 17-29.5-2.1-1.1-17 29.5-37.9-22-1.2 2.1 37.9 21.9-16.4 28.5 2.1 1.2 16.4-28.5 48.2 27.9v56.2l-49.3 28.5-33.4 19.3 1.2 2.1 33.4-19.3 49.3-28.5 49.3 28.5.6.3.6-.3 48.2-27.8 2.3-1.3v-.7-2-54.9l32.8-18.9zm-34 77.2-47.6 27.5-1.1.7-1.1-.7-47.6-27.5v-56.2l47.6-27.5 1.1-.6 1.1.6 47.6 27.5v54.9z"/><path d="m457.5 87.2-33.3 19.3-1.1-.7v.1l-47.1-27.3 28.2-48.8-2.1-1.2-27.8 48.1-17.2-30-2.1 1.2 17.7 30.7-48.2 27.9-1.2-.7v.1l-31.6-18.3-1.2 2 27.6 16v38.4h2.4v-37l3.2 1.8.7.5 2.4-1.4 1.7-.9v37h2.4v-38.4l43.4-25.1 49.3 28.4.6.4.6-.4 1.8-1 32.1-18.6z"/><path d="m533.2 113.9h2.4v45.6h-2.4z"/><path d="m570.8 169.7h45.6v2.4h-45.6z" transform="matrix(.8654 -.501 .501 .8654 -5.7427 320.4311)"/><path d="m625 109.9v-2-.7l-.6-.3-49.8-28.8-.7-.4-.6.3-.1.1-1.7.9-47.5 27.5-32.6-18.8-1.2 2.1 32.6 18.8v54.9 2 .7l.6.3.2.1 1.6.9 46.4 26.8 1.5.9.2.1.6.3.6-.3 49.3-28.5 34.7 20 1.2-2.1-34.7-20zm-99.8-1.3 48.7-28.1 1.1.6 46.4 26.8 1.2.7v1.3 54.9l-47.6 27.5-1.1.7-48.7-28.1v-1.3z"/><path d="m592.4 79.7h2.4v45.6h-2.4z" transform="matrix(.5008 -.8656 .8656 .5008 207.6756 564.9991)"/><path d="m485.3 55.4h15.5v2.4h-15.5z" transform="matrix(.4998 -.8661 .8661 .4998 197.6162 455.3708)"/><path d="m476.4 50.2h15.4v2.4h-15.4z" transform="matrix(.4998 -.8661 .8661 .4998 197.6222 445.0199)"/><path d="m453.9 48.9h2.4v15.1h-2.4z" transform="matrix(.8665 -.4992 .4992 .8665 32.5642 234.7245)"/><path d="m462.9 43.8h2.4v15.1h-2.4z" transform="matrix(.8665 -.4992 .4992 .8665 36.342 238.5285)"/><path d="m19.9 51.1h12.8v-3.3h-12.8v-8.9h14.3v-3.4h-18.1v28.6h3.8z"/><path d="m98.6 30h12.9v-3.4h-12.9v-8.8h14.3v-3.4h-18.1v28.6h3.8z"/><path d="m55.3 117.6v-3.4h-18.1v28.6h3.8v-13h12.9v-3.4h-12.9v-8.8z"/><path d="m32.5 230.6-14.4-22.3h-3.9v28.6h3.6v-22.3h.1l14.4 22.3h3.8v-28.6h-3.6z"/><path d="m282 86.6h-.1l-14.4-22.3h-3.9v28.6h3.6v-22.3h.1l14.4 22.3h3.9v-28.6h-3.6z"/><path d="m267.5 46.8h14.1v13.5h3.8v-28.7h-3.8v11.8h-14.1v-11.8h-3.8v28.7h3.8z"/><path d="m331.5 152.2c-3.1-1.8-7-1.8-7-1.8-3.9 0-7 1.8-7 1.8-3.1 1.8-4.9 5.2-4.9 5.2-1.8 3.4-1.8 7.8-1.8 7.8 0 4.3 1.8 7.7 1.8 7.7 1.8 3.4 4.9 5.2 4.9 5.2 3.1 1.8 7 1.8 7 1.8 3.9 0 7-1.8 7-1.8 3.1-1.8 4.9-5.2 4.9-5.2 1.8-3.4 1.8-7.8 1.8-7.8 0-4.5-1.8-7.8-1.8-7.8-1.8-3.2-4.9-5.1-4.9-5.1zm1.5 19.3c-1.2 2.6-3.4 4-3.4 4-2.2 1.4-5.1 1.4-5.1 1.4-2.8 0-5-1.4-5-1.4-2.2-1.4-3.5-4-3.5-4-1.2-2.6-1.2-6.1-1.2-6.1 0-3.6 1.2-6.3 1.2-6.3 1.2-2.6 3.4-4 3.4-4 2.2-1.4 5.1-1.4 5.1-1.4 2.9 0 5.1 1.4 5.1 1.4 2.2 1.4 3.4 4 3.4 4 1.2 2.6 1.2 6.2 1.2 6.2.1 3.6-1.2 6.2-1.2 6.2z"/><path d="m338.5 41.9c3.1 1.8 7 1.8 7 1.8 3.9 0 7-1.8 7-1.8 3.1-1.8 4.9-5.2 4.9-5.2 1.8-3.4 1.8-7.8 1.8-7.8 0-4.5-1.8-7.8-1.8-7.8-1.8-3.3-4.9-5.2-4.9-5.2-3.1-1.8-7-1.8-7-1.8-3.9 0-7 1.8-7 1.8-3.1 1.8-4.9 5.2-4.9 5.2-1.8 3.4-1.8 7.8-1.8 7.8 0 4.3 1.8 7.7 1.8 7.7 1.8 3.4 4.9 5.3 4.9 5.3zm-1.5-19.1c1.2-2.6 3.4-4 3.4-4 2.2-1.4 5.1-1.4 5.1-1.4 2.9 0 5.1 1.4 5.1 1.4 2.2 1.4 3.4 4 3.4 4 1.2 2.6 1.2 6.2 1.2 6.2 0 3.6-1.3 6.2-1.3 6.2-1.2 2.6-3.4 4-3.4 4-2.2 1.4-5.1 1.4-5.1 1.4-2.8 0-5-1.4-5-1.4-2.2-1.4-3.5-4-3.5-4-1.2-2.6-1.2-6.1-1.2-6.1.1-3.7 1.3-6.3 1.3-6.3z"/><path d="m310 29.8h14.1v13.5h3.8v-28.7h-3.8v11.8h-14.1v-11.8h-3.8v28.7h3.8z"/><path d="m481 78.4c-2.3-1.1-6.1-2-6.1-2-2.8-.6-4.3-1.1-4.3-1.1-1.5-.6-2.2-1.4-2.2-1.4-.7-.8-.7-2.2-.7-2.2 0-1.4.8-2.4.8-2.4.8-1 2.2-1.5 2.2-1.5 1.4-.6 3.3-.6 3.3-.6 2.8 0 4.5 1.4 4.5 1.4 1.7 1.3 2.3 4.4 2.3 4.4h.1l3.7-.8c-.4-2.6-1.7-4.4-1.7-4.4-1.4-1.8-3.6-2.8-3.6-2.8-2.3-1-5.2-1-5.2-1-2.8 0-5 1-5 1-2.2 1-3.5 2.8-3.5 2.8-1.3 1.7-1.3 3.9-1.3 3.9 0 2 .6 3.4.6 3.4.6 1.4 2.3 2.6 2.3 2.6 1.7 1.1 4.7 1.9 4.7 1.9.6.2 2.3.6 2.3.6 2.8.6 4.2 1.1 4.2 1.1 1.8.6 2.6 1.6 2.6 1.6.9 1 .9 2.8.9 2.8 0 1.3-1 2.4-1 2.4-.9 1.1-2.5 1.7-2.5 1.7-1.6.6-3.5.6-3.5.6-3.6 0-5.6-1.8-5.6-1.8-2-1.8-2.4-5.3-2.4-5.3l-3.8.9c.7 4.6 3.8 7 3.8 7 3.1 2.4 8.2 2.4 8.2 2.4 3 0 5.4-1.1 5.4-1.1 2.4-1.1 3.7-3.1 3.7-3.1 1.4-2 1.4-4.4 1.4-4.4 0-2.4-1-4-1-4-1.4-1.6-3.6-2.6-3.6-2.6z"/><path d="m682.7 182.9v-3.4h-18.1v28.6h3.8v-13h12.8v-3.3h-12.8v-8.9z"/><path d="m495.9 41.9c3.1 1.8 7 1.8 7 1.8 3.9 0 7-1.8 7-1.8 3.1-1.8 4.9-5.2 4.9-5.2 1.8-3.4 1.8-7.8 1.8-7.8 0-4.5-1.8-7.8-1.8-7.8-1.8-3.3-4.9-5.2-4.9-5.2-3.1-1.8-7-1.8-7-1.8-3.9 0-7 1.8-7 1.8-3.1 1.8-4.9 5.2-4.9 5.2-1.8 3.4-1.8 7.8-1.8 7.8 0 4.3 1.8 7.7 1.8 7.7 1.8 3.4 4.9 5.3 4.9 5.3zm-1.5-19.1c1.2-2.6 3.4-4 3.4-4 2.2-1.4 5.1-1.4 5.1-1.4 2.9 0 5.1 1.4 5.1 1.4 2.2 1.4 3.4 4 3.4 4 1.2 2.6 1.2 6.2 1.2 6.2 0 3.6-1.2 6.2-1.2 6.2-1.3 2.6-3.5 4-3.5 4-2.2 1.4-5.1 1.4-5.1 1.4-2.8 0-5-1.4-5-1.4-2.2-1.4-3.5-4-3.5-4-1.2-2.6-1.2-6.1-1.2-6.1 0-3.7 1.3-6.3 1.3-6.3z"/><path d="m438.3 41.9c3.1 1.8 7 1.8 7 1.8 3.9 0 7-1.8 7-1.8 3.1-1.8 4.9-5.2 4.9-5.2 1.8-3.3 1.8-7.7 1.8-7.7 0-4.5-1.8-7.8-1.8-7.8-1.8-3.3-4.9-5.2-4.9-5.2-3.1-1.8-7-1.8-7-1.8-3.9 0-7 1.8-7 1.8-3.1 1.8-4.9 5.2-4.9 5.2-1.8 3.4-1.8 7.8-1.8 7.8 0 4.3 1.8 7.7 1.8 7.7 1.8 3.3 4.9 5.2 4.9 5.2zm-1.5-19.1c1.2-2.6 3.4-4 3.4-4 2.2-1.4 5.1-1.4 5.1-1.4 2.9 0 5.1 1.4 5.1 1.4 2.2 1.4 3.4 4 3.4 4 1.2 2.6 1.2 6.2 1.2 6.2 0 3.6-1.2 6.2-1.2 6.2-1.3 2.6-3.5 4-3.5 4-2.2 1.4-5.1 1.4-5.1 1.4-2.8 0-5-1.4-5-1.4-2.2-1.4-3.5-4-3.5-4-1.2-2.6-1.2-6.1-1.2-6.1 0-3.7 1.3-6.3 1.3-6.3z"/></svg>