<?xml version="1.0" encoding="utf-8"?>
<!-- Generator: Adobe Illustrator 21.0.0, SVG Export Plug-In . SVG Version: 6.00 Build 0)  -->
<svg version="1.1" id="Слой_1" xmlns="http://www.w3.org/2000/svg" xmlns:xlink="http://www.w3.org/1999/xlink" x="0px" y="0px"
	 viewBox="0 0 696.9 251.1" style="enable-background:new 0 0 696.9 251.1;" xml:space="preserve">
<g>
	<rect x="134.1" y="113.9" width="2.4" height="45.6"/>
	<rect x="171.8" y="169.7" transform="matrix(0.8661 -0.4998 0.4998 0.8661 -59.3742 120.1304)" width="45.6" height="2.4"/>
	<rect x="193.4" y="79.6" transform="matrix(0.5004 -0.8658 0.8658 0.5004 8.4969 219.6575)" width="2.4" height="45.6"/>
	<rect x="33.9" y="193.7" transform="matrix(0.8662 -0.4997 0.4997 0.8662 -90.2924 52.6473)" width="38.5" height="2.4"/>
	<rect x="44.3" y="211.7" transform="matrix(0.8661 -0.4998 0.4998 0.8661 -97.8989 60.2543)" width="38.5" height="2.4"/>
	<path d="M257.5,87.6l-32.8,18.9l-49.1-28.3l-0.8-0.5l-0.8,0.5l-49.1,28.3L76.7,78.6l17-29.5L91.6,48l-17,29.5L36.7,55.5l-1.2,2.1
		l37.9,21.9L57,108l2.1,1.2l16.4-28.5l48.2,27.9v56.2l-49.3,28.5l-33.4,19.3l1.2,2.1l33.4-19.3l49.3-28.5l49.3,28.5l0,0l0.6,0.3
		l0.6-0.3l0,0l48.2-27.8l0,0l2.3-1.3v-0.7v-2v-54.9l32.8-18.9L257.5,87.6z M223.5,164.8l-47.6,27.5l0,0l-1.1,0.7l-1.1-0.7l0,0
		l-47.6-27.5v-56.2l47.6-27.5l0,0l1.1-0.6l1.1,0.6l0,0l47.6,27.5v54.9V164.8z"/>
	<polygon points="457.5,87.2 424.2,106.5 423.1,105.8 423.1,105.9 376,78.6 404.2,29.8 402.1,28.6 374.3,76.7 357.1,46.7 355,47.9 
		372.7,78.6 324.5,106.5 323.3,105.8 323.3,105.9 291.7,87.6 290.5,89.6 318.1,105.6 318.1,144 320.5,144 320.5,107 323.7,108.8 
		324.4,109.3 326.8,107.9 326.8,107.9 328.5,107 328.5,144 330.9,144 330.9,105.6 374.3,80.5 423.6,108.9 423.6,108.9 424.2,109.3 
		424.8,108.9 424.8,108.9 424.8,108.9 426.6,107.9 426.6,107.9 458.7,89.3 	"/>
	<rect x="533.2" y="113.9" width="2.4" height="45.6"/>
	<rect x="570.8" y="169.7" transform="matrix(0.8654 -0.501 0.501 0.8654 -5.7427 320.4311)" width="45.6" height="2.4"/>
	<path d="M625,109.9v-2v-0.7l-0.6-0.3l0,0l-49.8-28.8l-0.7-0.4l-0.6,0.3l0,0l-0.1,0.1l-1.7,0.9l0,0L524,106.5l-32.6-18.8l-1.2,2.1
		l32.6,18.8v54.9v2v0.7l0.6,0.3l0,0l0.2,0.1l1.6,0.9l0,0l46.4,26.8l0,0l1.5,0.9l0.2,0.1l0,0l0.6,0.3l0.6-0.3l0,0l49.3-28.5l34.7,20
		l1.2-2.1l-34.7-20V109.9z M525.2,108.6l48.7-28.1l1.1,0.6l0,0l46.4,26.8l0,0l1.2,0.7v1.3v54.9L575,192.3l0,0l-1.1,0.7l-48.7-28.1
		v-1.3V108.6z"/>
	<rect x="592.4" y="79.7" transform="matrix(0.5008 -0.8656 0.8656 0.5008 207.6756 564.9991)" width="2.4" height="45.6"/>
	<rect x="485.3" y="55.4" transform="matrix(0.4998 -0.8661 0.8661 0.4998 197.6162 455.3708)" width="15.5" height="2.4"/>
	<rect x="476.4" y="50.2" transform="matrix(0.4998 -0.8661 0.8661 0.4998 197.6222 445.0199)" width="15.4" height="2.4"/>
	<rect x="453.9" y="48.9" transform="matrix(0.8665 -0.4992 0.4992 0.8665 32.5642 234.7245)" width="2.4" height="15.1"/>
	<rect x="462.9" y="43.8" transform="matrix(0.8665 -0.4992 0.4992 0.8665 36.342 238.5285)" width="2.4" height="15.1"/>
	<polygon points="19.9,51.1 32.7,51.1 32.7,47.8 19.9,47.8 19.9,38.9 34.2,38.9 34.2,35.5 16.1,35.5 16.1,64.1 19.9,64.1 	"/>
	<polygon points="98.6,30 111.5,30 111.5,26.6 98.6,26.6 98.6,17.8 112.9,17.8 112.9,14.4 94.8,14.4 94.8,43 98.6,43 	"/>
	<polygon points="55.3,117.6 55.3,114.2 37.2,114.2 37.2,142.8 41,142.8 41,129.8 53.9,129.8 53.9,126.4 41,126.4 41,117.6 	"/>
	<polygon points="32.5,230.6 32.5,230.6 18.1,208.3 14.2,208.3 14.2,236.9 17.8,236.9 17.8,214.6 17.9,214.6 32.3,236.9 36.1,236.9 
		36.1,208.3 32.5,208.3 	"/>
	<polygon points="282,86.6 281.9,86.6 267.5,64.3 263.6,64.3 263.6,92.9 267.2,92.9 267.2,70.6 267.3,70.6 281.7,92.9 285.6,92.9 
		285.6,64.3 282,64.3 	"/>
	<polygon points="267.5,46.8 281.6,46.8 281.6,60.3 285.4,60.3 285.4,31.6 281.6,31.6 281.6,43.4 267.5,43.4 267.5,31.6 263.7,31.6 
		263.7,60.3 267.5,60.3 	"/>
	<path d="M331.5,152.2c-3.1-1.8-7-1.8-7-1.8c-3.9,0-7,1.8-7,1.8c-3.1,1.8-4.9,5.2-4.9,5.2c-1.8,3.4-1.8,7.8-1.8,7.8
		c0,4.3,1.8,7.7,1.8,7.7c1.8,3.4,4.9,5.2,4.9,5.2c3.1,1.8,7,1.8,7,1.8c3.9,0,7-1.8,7-1.8c3.1-1.8,4.9-5.2,4.9-5.2
		c1.8-3.4,1.8-7.8,1.8-7.8c0-4.5-1.8-7.8-1.8-7.8C334.6,154.1,331.5,152.2,331.5,152.2z M333,171.5c-1.2,2.6-3.4,4-3.4,4
		c-2.2,1.4-5.1,1.4-5.1,1.4c-2.8,0-5-1.4-5-1.4c-2.2-1.4-3.5-4-3.5-4c-1.2-2.6-1.2-6.1-1.2-6.1c0-3.6,1.2-6.3,1.2-6.3
		c1.2-2.6,3.4-4,3.4-4c2.2-1.4,5.1-1.4,5.1-1.4c2.9,0,5.1,1.4,5.1,1.4c2.2,1.4,3.4,4,3.4,4c1.2,2.6,1.2,6.2,1.2,6.2
		C334.3,168.9,333,171.5,333,171.5z"/>
	<path d="M338.5,41.9c3.1,1.8,7,1.8,7,1.8c3.9,0,7-1.8,7-1.8c3.1-1.8,4.9-5.2,4.9-5.2c1.8-3.4,1.8-7.8,1.8-7.8
		c0-4.5-1.8-7.8-1.8-7.8c-1.8-3.3-4.9-5.2-4.9-5.2c-3.1-1.8-7-1.8-7-1.8c-3.9,0-7,1.8-7,1.8c-3.1,1.8-4.9,5.2-4.9,5.2
		c-1.8,3.4-1.8,7.8-1.8,7.8c0,4.3,1.8,7.7,1.8,7.7C335.4,40,338.5,41.9,338.5,41.9z M337,22.8c1.2-2.6,3.4-4,3.4-4
		c2.2-1.4,5.1-1.4,5.1-1.4c2.9,0,5.1,1.4,5.1,1.4c2.2,1.4,3.4,4,3.4,4c1.2,2.6,1.2,6.2,1.2,6.2c0,3.6-1.3,6.2-1.3,6.2
		c-1.2,2.6-3.4,4-3.4,4c-2.2,1.4-5.1,1.4-5.1,1.4c-2.8,0-5-1.4-5-1.4c-2.2-1.4-3.5-4-3.5-4c-1.2-2.6-1.2-6.1-1.2-6.1
		C335.8,25.4,337,22.8,337,22.8z"/>
	<polygon points="310,29.8 324.1,29.8 324.1,43.3 327.9,43.3 327.9,14.6 324.1,14.6 324.1,26.4 310,26.4 310,14.6 306.2,14.6 
		306.2,43.3 310,43.3 	"/>
	<path d="M481,78.4c-2.3-1.1-6.1-2-6.1-2c-2.8-0.6-4.3-1.1-4.3-1.1c-1.5-0.6-2.2-1.4-2.2-1.4c-0.7-0.8-0.7-2.2-0.7-2.2
		c0-1.4,0.8-2.4,0.8-2.4c0.8-1,2.2-1.5,2.2-1.5c1.4-0.6,3.3-0.6,3.3-0.6c2.8,0,4.5,1.4,4.5,1.4c1.7,1.3,2.3,4.4,2.3,4.4h0.1l3.7-0.8
		c-0.4-2.6-1.7-4.4-1.7-4.4c-1.4-1.8-3.6-2.8-3.6-2.8c-2.3-1-5.2-1-5.2-1c-2.8,0-5,1-5,1c-2.2,1-3.5,2.8-3.5,2.8
		c-1.3,1.7-1.3,3.9-1.3,3.9c0,2,0.6,3.4,0.6,3.4c0.6,1.4,2.3,2.6,2.3,2.6c1.7,1.1,4.7,1.9,4.7,1.9c0.6,0.2,2.3,0.6,2.3,0.6
		c2.8,0.6,4.2,1.1,4.2,1.1c1.8,0.6,2.6,1.6,2.6,1.6c0.9,1,0.9,2.8,0.9,2.8c0,1.3-1,2.4-1,2.4c-0.9,1.1-2.5,1.7-2.5,1.7
		c-1.6,0.6-3.5,0.6-3.5,0.6c-3.6,0-5.6-1.8-5.6-1.8c-2-1.8-2.4-5.3-2.4-5.3l-3.8,0.9c0.7,4.6,3.8,7,3.8,7c3.1,2.4,8.2,2.4,8.2,2.4
		c3,0,5.4-1.1,5.4-1.1c2.4-1.1,3.7-3.1,3.7-3.1c1.4-2,1.4-4.4,1.4-4.4c0-2.4-1-4-1-4C483.2,79.4,481,78.4,481,78.4z"/>
	<polygon points="682.7,182.9 682.7,179.5 664.6,179.5 664.6,208.1 668.4,208.1 668.4,195.1 681.2,195.1 681.2,191.8 668.4,191.8 
		668.4,182.9 	"/>
	<path d="M495.9,41.9c3.1,1.8,7,1.8,7,1.8c3.9,0,7-1.8,7-1.8c3.1-1.8,4.9-5.2,4.9-5.2c1.8-3.4,1.8-7.8,1.8-7.8
		c0-4.5-1.8-7.8-1.8-7.8c-1.8-3.3-4.9-5.2-4.9-5.2c-3.1-1.8-7-1.8-7-1.8c-3.9,0-7,1.8-7,1.8c-3.1,1.8-4.9,5.2-4.9,5.2
		c-1.8,3.4-1.8,7.8-1.8,7.8c0,4.3,1.8,7.7,1.8,7.7C492.8,40,495.9,41.9,495.9,41.9z M494.4,22.8c1.2-2.6,3.4-4,3.4-4
		c2.2-1.4,5.1-1.4,5.1-1.4c2.9,0,5.1,1.4,5.1,1.4c2.2,1.4,3.4,4,3.4,4c1.2,2.6,1.2,6.2,1.2,6.2c0,3.6-1.2,6.2-1.2,6.2
		c-1.3,2.6-3.5,4-3.5,4c-2.2,1.4-5.1,1.4-5.1,1.4c-2.8,0-5-1.4-5-1.4c-2.2-1.4-3.5-4-3.5-4c-1.2-2.6-1.2-6.1-1.2-6.1
		C493.1,25.4,494.4,22.8,494.4,22.8z"/>
	<path d="M438.3,41.9c3.1,1.8,7,1.8,7,1.8c3.9,0,7-1.8,7-1.8c3.1-1.8,4.9-5.2,4.9-5.2C459,33.4,459,29,459,29c0-4.5-1.8-7.8-1.8-7.8
		c-1.8-3.3-4.9-5.2-4.9-5.2c-3.1-1.8-7-1.8-7-1.8c-3.9,0-7,1.8-7,1.8c-3.1,1.8-4.9,5.2-4.9,5.2c-1.8,3.4-1.8,7.8-1.8,7.8
		c0,4.3,1.8,7.7,1.8,7.7C435.2,40,438.3,41.9,438.3,41.9z M436.8,22.8c1.2-2.6,3.4-4,3.4-4c2.2-1.4,5.1-1.4,5.1-1.4
		c2.9,0,5.1,1.4,5.1,1.4c2.2,1.4,3.4,4,3.4,4c1.2,2.6,1.2,6.2,1.2,6.2c0,3.6-1.2,6.2-1.2,6.2c-1.3,2.6-3.5,4-3.5,4
		c-2.2,1.4-5.1,1.4-5.1,1.4c-2.8,0-5-1.4-5-1.4c-2.2-1.4-3.5-4-3.5-4c-1.2-2.6-1.2-6.1-1.2-6.1C435.5,25.4,436.8,22.8,436.8,22.8z"
		/>
</g>
</svg>
