<?xml version="1.0" encoding="utf-8"?>
<!-- Generator: Adobe Illustrator 17.0.0, SVG Export Plug-In . SVG Version: 6.00 Build 0)  -->
<!DOCTYPE svg PUBLIC "-//W3C//DTD SVG 1.1//EN" "http://www.w3.org/Graphics/SVG/1.1/DTD/svg11.dtd">
<svg version="1.1" id="Слой_1" xmlns="http://www.w3.org/2000/svg" xmlns:xlink="http://www.w3.org/1999/xlink" x="0px" y="0px"
	 width="537.761px" height="390.104px" viewBox="0 0 537.761 390.104" enable-background="new 0 0 537.761 390.104"
	 xml:space="preserve">
<g>
	<rect x="139.969" y="263.16" transform="matrix(0.4996 0.8663 -0.8663 0.4996 318.3788 20.8207)" width="2.4" height="45.628"/>
	<rect x="239.735" y="263.16" transform="matrix(-0.4996 -0.8663 0.8663 -0.4996 113.5642 637.553)" width="2.4" height="45.628"/>
	<path d="M376.871,118.29l-6.734-53.039l25.327-22.804l-1.606-1.783l-24.692,22.233l-8.752-2.842l28.113-25.313l-1.606-1.783
		l-29.143,26.24l-48.438-15.727l-0.742,2.282l48.656,15.798l16.988,56.422l-51.956,16.881l4.659-55.902h-12l4.618,55.417
		l-47.902-27.656l-0.599-0.346l-0.599,0.346l-49.883,28.8l-0.601,0.345v0.694v2l0,0l0,54.907l-47.301,27.309l4.618-55.416h-12
		l4.618,55.416l-47.219-27.262l4.718-36.995h-12l4.514,35.396l-47.797-27.596l-1.8-1.041v2.081v2l0,0l0,53.2l-29.24-22.103
		l-6,10.392l35.24,14.896v50.136l-34.213,19.753l1.199,2.079l33.014-19.061v1.907v2l-0.001,0.693l0.602,0.347l3.383,1.953
		l-33.013,19.06l1.199,2.079l34.214-19.753l42.368,24.461l0,0l1.732,1l0.599,0.346l0.599-0.346l1.732-1l0,0l47.552-27.454
		l48.683,28.107v35.175h2.4v-35.175l47.55-27.453l0,0l1.732-1l0.601-0.345v-0.694v-2v-54.907l48.82-28.187l54.272,17.634
		l0.828,0.271l0.514-0.706l1.176-1.618l0,0l32.681-44.981l0.513-0.706l-0.513-0.706L376.871,118.29z M322.143,193.281v-55.856
		l53.123-17.26l32.169,44.277l0,0l0.663,0.912l-0.663,0.912l0,0l-32.169,44.277L322.143,193.281z M269.574,220.709l-47.197-27.249
		l0-56.214l47.551-27.453l0,0l1.133-0.654l1.133,0.654l0,0l47.55,27.453v56.214l-47.197,27.249l4.514-35.396h-12L269.574,220.709z
		 M72.728,220.875l0-53.443l46.283,26.722L72.728,220.875z M72.728,223.646l48.683-28.107l48.683,28.107v56.214l-48.683,28.107
		L73.86,280.514l0,0l-1.131-0.653v-1.307V223.646z M269.86,279.86l-1.132,0.653l0,0l-47.552,27.454l-48.683-28.107v-56.214
		l48.683-28.107l48.683,28.107v54.907V279.86z"/>
	<polygon points="380.571,116.506 382.563,115.132 380.041,112.332 378.467,114.17 	"/>
	<polygon points="388.539,111.011 390.531,109.637 386.339,104.983 384.764,106.82 	"/>
	<polygon points="406.467,98.646 398.935,90.284 397.36,92.122 404.475,100.02 	"/>
	<polygon points="391.062,99.471 396.507,105.515 398.499,104.141 392.637,97.634 	"/>
	<polygon points="225.255,215.853 217.1,215.853 216.782,218.253 225.573,218.253 	"/>
	<polygon points="223.982,206.253 218.373,206.253 218.055,208.653 224.3,208.653 	"/>
	<polygon points="222.709,196.653 219.646,196.653 219.328,199.053 223.027,199.053 	"/>
	<polygon points="226.528,225.453 215.827,225.453 215.509,227.853 226.846,227.853 	"/>
	<polygon points="319.412,196.653 319.094,199.053 322.793,199.053 322.475,196.653 	"/>
	<polygon points="316.548,218.253 325.339,218.253 325.021,215.853 316.866,215.853 	"/>
	<polygon points="317.821,208.653 324.066,208.653 323.748,206.253 318.139,206.253 	"/>
	<polygon points="315.275,227.853 326.612,227.853 326.294,225.453 315.593,225.453 	"/>
	<polygon points="503.419,76.263 475.296,101.584 474.484,97.761 474.34,97.084 473.681,96.87 471.779,96.252 471.779,96.252 
		469.965,95.663 498.087,70.341 496.481,68.558 467.329,94.806 437.794,85.21 437.051,87.492 472.28,98.939 472.552,100.218 
		472.552,100.218 484.112,154.603 486.46,154.102 475.873,104.295 505.025,78.046 	"/>
	<path d="M428.029,68.712c-1.147-1.267-2.527-2.227-4.14-2.88c-1.613-0.653-3.393-0.98-5.34-0.98c-1.92,0-3.687,0.333-5.3,1
		c-1.613,0.667-3,1.64-4.16,2.92c-1.16,1.28-2.067,2.853-2.72,4.72c-0.653,1.867-0.98,4-0.98,6.4s0.32,4.533,0.96,6.4
		c0.64,1.867,1.54,3.433,2.7,4.7c1.16,1.267,2.547,2.227,4.16,2.88s3.393,0.98,5.34,0.98c1.973,0,3.767-0.333,5.38-1
		c1.613-0.667,2.993-1.64,4.14-2.92s2.033-2.86,2.66-4.74c0.627-1.88,0.94-4.02,0.94-6.42s-0.32-4.527-0.96-6.38
		C430.069,71.539,429.176,69.979,428.029,68.712z M427.229,84.712c-0.4,1.453-0.987,2.693-1.76,3.72
		c-0.773,1.027-1.74,1.82-2.9,2.38c-1.16,0.56-2.5,0.84-4.02,0.84c-1.573,0-2.94-0.28-4.1-0.84c-1.16-0.56-2.127-1.353-2.9-2.38
		c-0.773-1.027-1.353-2.267-1.74-3.72c-0.387-1.453-0.58-3.073-0.58-4.86c0-1.76,0.193-3.367,0.58-4.82
		c0.387-1.453,0.973-2.7,1.76-3.74s1.76-1.84,2.92-2.4c1.16-0.56,2.513-0.84,4.06-0.84c1.52,0,2.853,0.28,4,0.84
		c1.147,0.56,2.113,1.36,2.9,2.4c0.787,1.04,1.38,2.287,1.78,3.74s0.6,3.06,0.6,4.82C427.829,81.639,427.629,83.259,427.229,84.712z
		"/>
	<path d="M31.145,297.853c-1.146-1.267-2.526-2.227-4.14-2.88c-1.613-0.653-3.393-0.98-5.34-0.98c-1.92,0-3.687,0.333-5.3,1
		c-1.613,0.667-3,1.64-4.16,2.92c-1.16,1.28-2.067,2.853-2.72,4.72c-0.653,1.867-0.98,4-0.98,6.4c0,2.4,0.32,4.533,0.96,6.4
		s1.54,3.433,2.7,4.7c1.16,1.267,2.547,2.227,4.16,2.88c1.613,0.653,3.393,0.98,5.34,0.98c1.974,0,3.767-0.333,5.38-1
		c1.613-0.667,2.993-1.64,4.14-2.92c1.147-1.28,2.033-2.86,2.66-4.74c0.627-1.88,0.94-4.02,0.94-6.42c0-2.4-0.32-4.527-0.96-6.38
		C33.185,300.68,32.292,299.12,31.145,297.853z M30.345,313.853c-0.4,1.453-0.987,2.693-1.76,3.72c-0.773,1.027-1.74,1.82-2.9,2.38
		c-1.16,0.56-2.5,0.84-4.02,0.84c-1.573,0-2.94-0.28-4.1-0.84c-1.16-0.56-2.127-1.353-2.9-2.38c-0.773-1.027-1.353-2.267-1.74-3.72
		c-0.387-1.453-0.58-3.073-0.58-4.86c0-1.76,0.193-3.367,0.58-4.82c0.387-1.453,0.973-2.7,1.76-3.74c0.787-1.04,1.76-1.84,2.92-2.4
		c1.16-0.56,2.513-0.84,4.06-0.84c1.52,0,2.853,0.28,4,0.84c1.147,0.56,2.113,1.36,2.9,2.4c0.787,1.04,1.38,2.287,1.78,3.74
		c0.4,1.453,0.6,3.06,0.6,4.82C30.945,310.78,30.745,312.4,30.345,313.853z"/>
	<polygon points="228.397,265.313 232.077,265.313 232.077,236.753 228.397,236.753 228.397,248.833 213.957,248.833 
		213.957,236.753 210.277,236.753 210.277,265.313 213.957,265.313 213.957,252.273 228.397,252.273 	"/>
	<polygon points="328.163,248.833 313.723,248.833 313.723,236.753 310.043,236.753 310.043,265.313 313.723,265.313 
		313.723,252.273 328.163,252.273 328.163,265.313 331.843,265.313 331.843,236.753 328.163,236.753 	"/>
	<path d="M397.074,34.651c1.16,1.267,2.547,2.227,4.16,2.88c1.613,0.653,3.393,0.98,5.34,0.98c1.973,0,3.767-0.333,5.38-1
		c1.613-0.667,2.993-1.64,4.14-2.92c1.147-1.28,2.033-2.86,2.66-4.74c0.627-1.88,0.94-4.02,0.94-6.42s-0.32-4.527-0.96-6.38
		c-0.64-1.853-1.533-3.413-2.68-4.68s-2.527-2.227-4.14-2.88c-1.613-0.653-3.393-0.98-5.34-0.98c-1.92,0-3.687,0.333-5.3,1
		c-1.613,0.667-3,1.64-4.16,2.92c-1.16,1.28-2.067,2.853-2.72,4.72c-0.653,1.867-0.98,4-0.98,6.4s0.32,4.533,0.96,6.4
		C395.014,31.817,395.914,33.384,397.074,34.651z M397.834,18.691c0.387-1.453,0.973-2.7,1.76-3.74c0.787-1.04,1.76-1.84,2.92-2.4
		c1.16-0.56,2.513-0.84,4.06-0.84c1.52,0,2.853,0.28,4,0.84c1.147,0.56,2.113,1.36,2.9,2.4c0.787,1.04,1.38,2.286,1.78,3.74
		c0.4,1.453,0.6,3.06,0.6,4.82c0,1.787-0.2,3.407-0.6,4.86c-0.4,1.453-0.987,2.693-1.76,3.72c-0.773,1.027-1.74,1.82-2.9,2.38
		c-1.16,0.56-2.5,0.84-4.02,0.84c-1.573,0-2.94-0.28-4.1-0.84c-1.16-0.56-2.127-1.353-2.9-2.38c-0.773-1.027-1.353-2.267-1.74-3.72
		c-0.387-1.453-0.58-3.073-0.58-4.86C397.254,21.751,397.447,20.144,397.834,18.691z"/>
	<path d="M528.295,52.649c-0.64-1.853-1.533-3.413-2.68-4.68c-1.147-1.266-2.527-2.227-4.14-2.88c-1.613-0.653-3.393-0.98-5.34-0.98
		c-1.92,0-3.687,0.333-5.3,1c-1.613,0.667-3,1.64-4.16,2.92c-1.16,1.28-2.067,2.853-2.72,4.72c-0.653,1.867-0.98,4-0.98,6.4
		s0.32,4.533,0.96,6.4c0.64,1.867,1.54,3.433,2.7,4.7c1.16,1.267,2.547,2.227,4.16,2.88c1.613,0.653,3.393,0.98,5.34,0.98
		c1.973,0,3.767-0.333,5.38-1c1.613-0.667,2.993-1.64,4.14-2.92s2.033-2.86,2.66-4.74c0.627-1.88,0.94-4.02,0.94-6.42
		S528.935,54.503,528.295,52.649z M524.816,63.97c-0.4,1.453-0.987,2.693-1.76,3.72s-1.74,1.82-2.9,2.38s-2.5,0.84-4.02,0.84
		c-1.573,0-2.94-0.28-4.1-0.84c-1.16-0.56-2.127-1.353-2.9-2.38c-0.773-1.027-1.353-2.267-1.74-3.72
		c-0.387-1.453-0.58-3.073-0.58-4.86c0-1.76,0.193-3.367,0.58-4.82c0.387-1.453,0.973-2.7,1.76-3.74c0.787-1.04,1.76-1.84,2.92-2.4
		c1.16-0.56,2.513-0.84,4.06-0.84c1.52,0,2.853,0.28,4,0.84c1.147,0.56,2.113,1.36,2.9,2.4c0.787,1.04,1.38,2.287,1.78,3.74
		c0.4,1.453,0.6,3.06,0.6,4.82C525.415,60.896,525.216,62.516,524.816,63.97z"/>
	<path d="M224.977,374.273c-0.347,0.853-0.82,1.587-1.42,2.2c-0.6,0.613-1.36,1.087-2.28,1.42c-0.92,0.333-2.033,0.5-3.34,0.5
		c-1.44,0-2.713-0.28-3.82-0.84c-1.107-0.56-2.04-1.36-2.8-2.4c-0.76-1.04-1.34-2.287-1.74-3.74c-0.4-1.453-0.6-3.06-0.6-4.82
		s0.2-3.367,0.6-4.82c0.4-1.453,0.98-2.693,1.74-3.72c0.76-1.027,1.693-1.827,2.8-2.4c1.107-0.573,2.367-0.86,3.78-0.86
		c1.2,0,2.22,0.153,3.06,0.46c0.84,0.307,1.56,0.753,2.16,1.34c0.6,0.587,1.093,1.3,1.48,2.14c0.387,0.84,0.7,1.78,0.94,2.82
		l3.6-0.6c-0.293-1.387-0.713-2.653-1.26-3.8c-0.547-1.147-1.267-2.133-2.16-2.96c-0.893-0.827-1.98-1.467-3.26-1.92
		c-1.28-0.453-2.8-0.68-4.56-0.68c-1.813,0-3.5,0.333-5.06,1c-1.56,0.667-2.913,1.64-4.06,2.92c-1.147,1.28-2.04,2.853-2.68,4.72
		c-0.64,1.867-0.96,4-0.96,6.4c0,2.373,0.3,4.487,0.9,6.34c0.6,1.853,1.447,3.42,2.54,4.7c1.093,1.28,2.427,2.253,4,2.92
		c1.573,0.667,3.347,1,5.32,1c1.813,0,3.407-0.253,4.78-0.76c1.373-0.507,2.54-1.213,3.5-2.12c0.96-0.907,1.72-1.98,2.28-3.22
		c0.56-1.24,0.92-2.58,1.08-4.02h-3.8C225.577,372.487,225.324,373.42,224.977,374.273z"/>
	<rect x="233.737" y="352.313" width="3.48" height="28.56"/>
	<polygon points="14.425,194.673 28.865,194.673 28.865,207.713 32.545,207.713 32.545,179.153 28.865,179.153 28.865,191.233 
		14.425,191.233 14.425,179.153 10.745,179.153 10.745,207.713 14.425,207.713 	"/>
	<polygon points="114.191,137.073 128.631,137.073 128.631,150.113 132.311,150.113 132.311,121.553 128.631,121.553 
		128.631,133.633 114.191,133.633 114.191,121.553 110.511,121.553 110.511,150.113 114.191,150.113 	"/>
	<polygon points="278.28,178.913 281.96,178.913 281.96,150.353 278.28,150.353 278.28,162.433 263.84,162.433 263.84,150.353 
		260.16,150.353 260.16,178.913 263.84,178.913 263.84,165.873 278.28,165.873 	"/>
</g>
</svg>
