<svg enable-background="new 0 0 537.761 390.104" height="390.104" viewBox="0 0 537.761 390.104" width="537.761" xmlns="http://www.w3.org/2000/svg"><path d="m139.969 263.16h2.4v45.628h-2.4z" transform="matrix(.4996 .8663 -.8663 .4996 318.3788 20.8207)"/><path d="m239.735 263.16h2.4v45.628h-2.4z" transform="matrix(-.4996 -.8663 .8663 -.4996 113.5642 637.553)"/><path d="m376.871 118.29-6.734-53.039 25.327-22.804-1.606-1.783-24.692 22.233-8.752-2.842 28.113-25.313-1.606-1.783-29.143 26.24-48.438-15.727-.742 2.282 48.656 15.798 16.988 56.422-51.956 16.881 4.659-55.902h-12l4.618 55.417-47.902-27.656-.599-.346-.599.346-49.883 28.8-.601.345v.694 2 54.907l-47.301 27.309 4.618-55.416h-12l4.618 55.416-47.219-27.262 4.718-36.995h-12l4.514 35.396-47.797-27.596-1.8-1.041v2.081 2 53.2l-29.24-22.103-6 10.392 35.24 14.896v50.136l-34.213 19.753 1.199 2.079 33.014-19.061v1.907 2l-.001.693.602.347 3.383 1.953-33.013 19.06 1.199 2.079 34.214-19.753 42.368 24.461 1.732 1 .599.346.599-.346 1.732-1 47.552-27.454 48.683 28.107v35.175h2.4v-35.175l47.55-27.453 1.732-1 .601-.345v-.694-2-54.907l48.82-28.187 54.272 17.634.828.271.514-.706 1.176-1.618 32.681-44.981.513-.706-.513-.706zm-54.728 74.991v-55.856l53.123-17.26 32.169 44.277.663.912-.663.912-32.169 44.277zm-52.569 27.428-47.197-27.249v-56.214l47.551-27.453 1.133-.654 1.133.654 47.55 27.453v56.214l-47.197 27.249 4.514-35.396h-12zm-196.846.166v-53.443l46.283 26.722zm0 2.771 48.683-28.107 48.683 28.107v56.214l-48.683 28.107-47.551-27.453-1.131-.653v-1.307-54.908zm197.132 56.214-1.132.653-47.552 27.454-48.683-28.107v-56.214l48.683-28.107 48.683 28.107v54.907 1.307z"/><path d="m380.571 116.506 1.992-1.374-2.522-2.8-1.574 1.838z"/><path d="m388.539 111.011 1.992-1.374-4.192-4.654-1.575 1.837z"/><path d="m406.467 98.646-7.532-8.362-1.575 1.838 7.115 7.898z"/><path d="m391.062 99.471 5.445 6.044 1.992-1.374-5.862-6.507z"/><path d="m225.255 215.853h-8.155l-.318 2.4h8.791z"/><path d="m223.982 206.253h-5.609l-.318 2.4h6.245z"/><path d="m222.709 196.653h-3.063l-.318 2.4h3.699z"/><path d="m226.528 225.453h-10.701l-.318 2.4h11.337z"/><path d="m319.412 196.653-.318 2.4h3.699l-.318-2.4z"/><path d="m316.548 218.253h8.791l-.318-2.4h-8.155z"/><path d="m317.821 208.653h6.245l-.318-2.4h-5.609z"/><path d="m315.275 227.853h11.337l-.318-2.4h-10.701z"/><path d="m503.419 76.263-28.123 25.321-.812-3.823-.144-.677-.659-.214-1.902-.618-1.814-.589 28.122-25.322-1.606-1.783-29.152 26.248-29.535-9.596-.743 2.282 35.229 11.447.272 1.279 11.56 54.385 2.348-.501-10.587-49.807 29.152-26.249z"/><path d="m428.029 68.712c-1.147-1.267-2.527-2.227-4.14-2.88s-3.393-.98-5.34-.98c-1.92 0-3.687.333-5.3 1s-3 1.64-4.16 2.92-2.067 2.853-2.72 4.72-.98 4-.98 6.4.32 4.533.96 6.4 1.54 3.433 2.7 4.7 2.547 2.227 4.16 2.88 3.393.98 5.34.98c1.973 0 3.767-.333 5.38-1s2.993-1.64 4.14-2.92 2.033-2.86 2.66-4.74.94-4.02.94-6.42-.32-4.527-.96-6.38-1.533-3.413-2.68-4.68zm-.8 16c-.4 1.453-.987 2.693-1.76 3.72s-1.74 1.82-2.9 2.38-2.5.84-4.02.84c-1.573 0-2.94-.28-4.1-.84s-2.127-1.353-2.9-2.38-1.353-2.267-1.74-3.72-.58-3.073-.58-4.86c0-1.76.193-3.367.58-4.82s.973-2.7 1.76-3.74 1.76-1.84 2.92-2.4 2.513-.84 4.06-.84c1.52 0 2.853.28 4 .84s2.113 1.36 2.9 2.4 1.38 2.287 1.78 3.74.6 3.06.6 4.82c0 1.787-.2 3.407-.6 4.86z"/><path d="m31.145 297.853c-1.146-1.267-2.526-2.227-4.14-2.88-1.613-.653-3.393-.98-5.34-.98-1.92 0-3.687.333-5.3 1s-3 1.64-4.16 2.92-2.067 2.853-2.72 4.72-.98 4-.98 6.4.32 4.533.96 6.4 1.54 3.433 2.7 4.7 2.547 2.227 4.16 2.88 3.393.98 5.34.98c1.974 0 3.767-.333 5.38-1s2.993-1.64 4.14-2.92 2.033-2.86 2.66-4.74.94-4.02.94-6.42-.32-4.527-.96-6.38-1.533-3.413-2.68-4.68zm-.8 16c-.4 1.453-.987 2.693-1.76 3.72s-1.74 1.82-2.9 2.38-2.5.84-4.02.84c-1.573 0-2.94-.28-4.1-.84s-2.127-1.353-2.9-2.38-1.353-2.267-1.74-3.72-.58-3.073-.58-4.86c0-1.76.193-3.367.58-4.82s.973-2.7 1.76-3.74 1.76-1.84 2.92-2.4 2.513-.84 4.06-.84c1.52 0 2.853.28 4 .84s2.113 1.36 2.9 2.4 1.38 2.287 1.78 3.74.6 3.06.6 4.82c0 1.787-.2 3.407-.6 4.86z"/><path d="m228.397 265.313h3.68v-28.56h-3.68v12.08h-14.44v-12.08h-3.68v28.56h3.68v-13.04h14.44z"/><path d="m328.163 248.833h-14.44v-12.08h-3.68v28.56h3.68v-13.04h14.44v13.04h3.68v-28.56h-3.68z"/><path d="m397.074 34.651c1.16 1.267 2.547 2.227 4.16 2.88s3.393.98 5.34.98c1.973 0 3.767-.333 5.38-1s2.993-1.64 4.14-2.92 2.033-2.86 2.66-4.74.94-4.02.94-6.42-.32-4.527-.96-6.38-1.533-3.413-2.68-4.68-2.527-2.227-4.14-2.88-3.393-.98-5.34-.98c-1.92 0-3.687.333-5.3 1s-3 1.64-4.16 2.92-2.067 2.853-2.72 4.72-.98 4-.98 6.4.32 4.533.96 6.4c.64 1.866 1.54 3.433 2.7 4.7zm.76-15.96c.387-1.453.973-2.7 1.76-3.74s1.76-1.84 2.92-2.4 2.513-.84 4.06-.84c1.52 0 2.853.28 4 .84s2.113 1.36 2.9 2.4 1.38 2.286 1.78 3.74c.4 1.453.6 3.06.6 4.82 0 1.787-.2 3.407-.6 4.86s-.987 2.693-1.76 3.72-1.74 1.82-2.9 2.38-2.5.84-4.02.84c-1.573 0-2.94-.28-4.1-.84s-2.127-1.353-2.9-2.38-1.353-2.267-1.74-3.72-.58-3.073-.58-4.86c0-1.76.193-3.367.58-4.82z"/><path d="m528.295 52.649c-.64-1.853-1.533-3.413-2.68-4.68-1.147-1.266-2.527-2.227-4.14-2.88s-3.393-.98-5.34-.98c-1.92 0-3.687.333-5.3 1s-3 1.64-4.16 2.92-2.067 2.853-2.72 4.72-.98 4-.98 6.4.32 4.533.96 6.4 1.54 3.433 2.7 4.7 2.547 2.227 4.16 2.88 3.393.98 5.34.98c1.973 0 3.767-.333 5.38-1s2.993-1.64 4.14-2.92 2.033-2.86 2.66-4.74.94-4.02.94-6.42-.32-4.526-.96-6.38zm-3.479 11.321c-.4 1.453-.987 2.693-1.76 3.72s-1.74 1.82-2.9 2.38-2.5.84-4.02.84c-1.573 0-2.94-.28-4.1-.84s-2.127-1.353-2.9-2.38-1.353-2.267-1.74-3.72-.58-3.073-.58-4.86c0-1.76.193-3.367.58-4.82s.973-2.7 1.76-3.74 1.76-1.84 2.92-2.4 2.513-.84 4.06-.84c1.52 0 2.853.28 4 .84s2.113 1.36 2.9 2.4 1.38 2.287 1.78 3.74.6 3.06.6 4.82c-.001 1.786-.2 3.406-.6 4.86z"/><path d="m224.977 374.273c-.347.853-.82 1.587-1.42 2.2s-1.36 1.087-2.28 1.42-2.033.5-3.34.5c-1.44 0-2.713-.28-3.82-.84s-2.04-1.36-2.8-2.4-1.34-2.287-1.74-3.74-.6-3.06-.6-4.82.2-3.367.6-4.82.98-2.693 1.74-3.72 1.693-1.827 2.8-2.4 2.367-.86 3.78-.86c1.2 0 2.22.153 3.06.46s1.56.753 2.16 1.34 1.093 1.3 1.48 2.14.7 1.78.94 2.82l3.6-.6c-.293-1.387-.713-2.653-1.26-3.8s-1.267-2.133-2.16-2.96-1.98-1.467-3.26-1.92-2.8-.68-4.56-.68c-1.813 0-3.5.333-5.06 1s-2.913 1.64-4.06 2.92-2.04 2.853-2.68 4.72-.96 4-.96 6.4c0 2.373.3 4.487.9 6.34s1.447 3.42 2.54 4.7 2.427 2.253 4 2.92 3.347 1 5.32 1c1.813 0 3.407-.253 4.78-.76s2.54-1.213 3.5-2.12 1.72-1.98 2.28-3.22.92-2.58 1.08-4.02h-3.8c-.16 1.014-.413 1.947-.76 2.8z"/><path d="m233.737 352.313h3.48v28.56h-3.48z"/><path d="m14.425 194.673h14.44v13.04h3.68v-28.56h-3.68v12.08h-14.44v-12.08h-3.68v28.56h3.68z"/><path d="m114.191 137.073h14.44v13.04h3.68v-28.56h-3.68v12.08h-14.44v-12.08h-3.68v28.56h3.68z"/><path d="m278.28 178.913h3.68v-28.56h-3.68v12.08h-14.44v-12.08h-3.68v28.56h3.68v-13.04h14.44z"/></svg>