<?xml version="1.0" encoding="utf-8"?>
<!-- Generator: Adobe Illustrator 19.2.1, SVG Export Plug-In . SVG Version: 6.00 Build 0)  -->
<svg version="1.1" id="Слой_1" xmlns="http://www.w3.org/2000/svg" xmlns:xlink="http://www.w3.org/1999/xlink" x="0px" y="0px"
	 viewBox="0 0 479 303.3" style="enable-background:new 0 0 479 303.3;" xml:space="preserve">
<g>
	<rect x="171.9" y="160" transform="matrix(0.5 -0.866 0.866 0.5 -71.7511 241.2854)" width="2.4" height="45.6"/>
	<rect x="112.6" y="194.2" width="2.4" height="45.6"/>
	<rect x="150.3" y="250" transform="matrix(0.8663 -0.4996 0.4996 0.8663 -102.3568 120.0606)" width="45.6" height="2.4"/>
	<polygon points="259.8,190.8 246.4,190.8 245.9,193.2 260.2,193.2 	"/>
	<polygon points="258.1,181.2 248.1,181.2 247.6,183.6 258.5,183.6 	"/>
	<polygon points="254.7,162 251.4,162 251,164.4 255.2,164.4 	"/>
	<polygon points="256.4,171.6 249.7,171.6 249.3,174 256.9,174 	"/>
	<polygon points="347.4,183.6 358.3,183.6 357.9,181.2 347.8,181.2 	"/>
	<polygon points="351.2,162 350.8,164.4 354.9,164.4 354.5,162 	"/>
	<polygon points="349.1,174 356.6,174 356.2,171.6 349.5,171.6 	"/>
	<polygon points="345.7,193.2 360,193.2 359.6,190.8 346.1,190.8 	"/>
	<path d="M60.6,261.4c-2.1-1.2-4.4-1.8-7-1.8s-5,0.6-7,1.8c-2.1,1.2-3.7,3-4.9,5.2c-1.2,2.3-1.8,4.9-1.8,7.8c0,2.9,0.6,5.5,1.8,7.7
		s2.8,4,4.9,5.2s4.4,1.9,7.1,1.9c2.6,0,4.9-0.6,7-1.8c2.1-1.2,3.7-2.9,4.9-5.2s1.8-4.8,1.8-7.8c0-3-0.6-5.6-1.8-7.8
		S62.7,262.6,60.6,261.4z M62.1,280.6c-0.8,1.7-2,3.1-3.5,4c-1.5,0.9-3.2,1.4-5.1,1.4c-1.9,0-3.6-0.5-5-1.4c-1.5-0.9-2.6-2.2-3.5-4
		c-0.8-1.7-1.2-3.8-1.2-6.1c0-2.4,0.4-4.5,1.2-6.3s2-3.1,3.4-4s3.2-1.4,5.1-1.4c1.9,0,3.6,0.5,5.1,1.4s2.6,2.3,3.4,4
		s1.2,3.8,1.2,6.2C63.3,276.8,62.9,278.9,62.1,280.6z"/>
	<polygon points="32.1,271.8 18,271.8 18,260 14.2,260 14.2,288.7 18,288.7 18,275.2 32.1,275.2 32.1,288.7 35.9,288.7 35.9,260 
		32.1,260 	"/>
	<polygon points="260.1,214 246.1,214 246.1,202.2 242.3,202.2 242.3,230.8 246.1,230.8 246.1,217.4 260.1,217.4 260.1,230.8 
		263.9,230.8 263.9,202.2 260.1,202.2 	"/>
	<polygon points="295.9,131 310,131 310,144.4 313.8,144.4 313.8,115.8 310,115.8 310,127.6 295.9,127.6 295.9,115.8 292.1,115.8 
		292.1,144.4 295.9,144.4 	"/>
	<polygon points="359.9,214 345.8,214 345.8,202.2 342,202.2 342,230.8 345.8,230.8 345.8,217.4 359.9,217.4 359.9,230.8 
		363.7,230.8 363.7,202.2 359.9,202.2 	"/>
	<path d="M441.3,128.3L441.3,128.3L409,83.9l17.1-32.1l-14.5-4.7l-5.1,36l-52.3,17l6.2-55.9h-15.2l6.2,55.4L305.3,73l0,0l-1.7-1
		l-0.6-0.3l-0.6,0.3l-48.2,27.8l0,0l-1.7,1l-0.6,0.3v0.7v2v54.9l-48.7,28.1l-47.6-27.5l0,0l-1.7-1l-0.6-0.3l-0.6,0.3l-1.7,1l0,0
		l-48.2,27.8l-0.6,0.3v0.7v2v54.9l-31.3,18.1l1.2,2.1l31.3-18.1l47.6,27.5l0,0l1.7,1l0.6,0.3l0.6-0.3l1.7-1l0,0l47.6-27.5l49.3,28.5
		l0.6,0.3l0.6-0.3l1.7-1l0,0l48.2-27.8l0.6-0.3v-0.7v-2v-54.9l48.8-28.2l54.3,17.6l0.8,0.3l0.5-0.7l1.2-1.6l0,0l31.5-43.4l0,0
		l1.2-1.6l0.5-0.7l-0.5-0.7L441.3,128.3z M440,130.6l-32.8,45.2l-53.1-17.3v-55.9l53.1-17.3l32.2,44.3l0,0L440,130.6z M352.9,159.4
		L352.9,159.4L352.9,159.4L352.9,159.4z M254.3,102.5l1.1-0.7l0,0L303,74.4l48.7,28.1v56.2l-47.1,27.2l6-35.1h-15.2l6,35.1
		l-47.1-27.2v-54.9V102.5z M104.6,188.9l48.7-28.1l48.7,28.1v56.2l-48.7,28.1l-48.7-28.1v-54.9V188.9z M301.8,245.1l-1.1,0.7l0,0
		l-47.6,27.5l-48.7-28.1v-56.2l48.7-28.1l48.7,28.1v54.9V245.1z"/>
	<path d="M418.4,41.9c2.1,1.2,4.4,1.9,7.1,1.9c2.6,0,4.9-0.6,7-1.8c2.1-1.2,3.7-2.9,4.9-5.2c1.2-2.2,1.8-4.8,1.8-7.8
		c0-3-0.6-5.6-1.8-7.8c-1.2-2.2-2.8-4-4.9-5.2c-2.1-1.2-4.4-1.8-7-1.8s-5,0.6-7,1.8c-2.1,1.2-3.7,3-4.9,5.2s-1.8,4.9-1.8,7.8
		c0,2.9,0.6,5.5,1.8,7.7C414.7,39,416.3,40.7,418.4,41.9z M416.9,22.8c0.8-1.8,2-3.1,3.4-4c1.5-0.9,3.2-1.4,5.1-1.4
		c1.9,0,3.6,0.5,5.1,1.4s2.6,2.3,3.4,4c0.8,1.8,1.2,3.8,1.2,6.2c0,2.4-0.4,4.4-1.3,6.2s-2,3.1-3.5,4c-1.5,0.9-3.2,1.4-5.1,1.4
		c-1.9,0-3.6-0.5-5-1.4c-1.5-0.9-2.6-2.2-3.5-4c-0.8-1.7-1.2-3.8-1.2-6.1C415.7,26.7,416.1,24.6,416.9,22.8z"/>
	<polygon points="461,14.7 461,26.4 446.9,26.4 446.9,14.7 443.1,14.7 443.1,43.3 446.9,43.3 446.9,29.8 461,29.8 461,43.3 
		464.8,43.3 464.8,14.7 	"/>
</g>
</svg>
