<svg enable-background="new 0 0 479 303.3" viewBox="0 0 479 303.3" xmlns="http://www.w3.org/2000/svg"><path d="m171.9 160h2.4v45.6h-2.4z" transform="matrix(.5 -.866 .866 .5 -71.7511 241.2854)"/><path d="m112.6 194.2h2.4v45.6h-2.4z"/><path d="m150.3 250h45.6v2.4h-45.6z" transform="matrix(.8663 -.4996 .4996 .8663 -102.3568 120.0606)"/><path d="m259.8 190.8h-13.4l-.5 2.4h14.3z"/><path d="m258.1 181.2h-10l-.5 2.4h10.9z"/><path d="m254.7 162h-3.3l-.4 2.4h4.2z"/><path d="m256.4 171.6h-6.7l-.4 2.4h7.6z"/><path d="m347.4 183.6h10.9l-.4-2.4h-10.1z"/><path d="m351.2 162-.4 2.4h4.1l-.4-2.4z"/><path d="m349.1 174h7.5l-.4-2.4h-6.7z"/><path d="m345.7 193.2h14.3l-.4-2.4h-13.5z"/><path d="m60.6 261.4c-2.1-1.2-4.4-1.8-7-1.8s-5 .6-7 1.8c-2.1 1.2-3.7 3-4.9 5.2-1.2 2.3-1.8 4.9-1.8 7.8s.6 5.5 1.8 7.7 2.8 4 4.9 5.2 4.4 1.9 7.1 1.9c2.6 0 4.9-.6 7-1.8s3.7-2.9 4.9-5.2 1.8-4.8 1.8-7.8-.6-5.6-1.8-7.8-2.9-4-5-5.2zm1.5 19.2c-.8 1.7-2 3.1-3.5 4s-3.2 1.4-5.1 1.4-3.6-.5-5-1.4c-1.5-.9-2.6-2.2-3.5-4-.8-1.7-1.2-3.8-1.2-6.1 0-2.4.4-4.5 1.2-6.3s2-3.1 3.4-4 3.2-1.4 5.1-1.4 3.6.5 5.1 1.4 2.6 2.3 3.4 4 1.2 3.8 1.2 6.2c.1 2.4-.3 4.5-1.1 6.2z"/><path d="m32.1 271.8h-14.1v-11.8h-3.8v28.7h3.8v-13.5h14.1v13.5h3.8v-28.7h-3.8z"/><path d="m260.1 214h-14v-11.8h-3.8v28.6h3.8v-13.4h14v13.4h3.8v-28.6h-3.8z"/><path d="m295.9 131h14.1v13.4h3.8v-28.6h-3.8v11.8h-14.1v-11.8h-3.8v28.6h3.8z"/><path d="m359.9 214h-14.1v-11.8h-3.8v28.6h3.8v-13.4h14.1v13.4h3.8v-28.6h-3.8z"/><path d="m441.3 128.3-32.3-44.4 17.1-32.1-14.5-4.7-5.1 36-52.3 17 6.2-55.9h-15.2l6.2 55.4-46.1-26.6-1.7-1-.6-.3-.6.3-48.2 27.8-1.7 1-.6.3v.7 2 54.9l-48.7 28.1-47.6-27.5-1.7-1-.6-.3-.6.3-1.7 1-48.2 27.8-.6.3v.7 2 54.9l-31.3 18.1 1.2 2.1 31.3-18.1 47.6 27.5 1.7 1 .6.3.6-.3 1.7-1 47.6-27.5 49.3 28.5.6.3.6-.3 1.7-1 48.2-27.8.6-.3v-.7-2-54.9l48.8-28.2 54.3 17.6.8.3.5-.7 1.2-1.6 31.5-43.4 1.2-1.6.5-.7-.5-.7zm-1.3 2.3-32.8 45.2-53.1-17.3v-55.9l53.1-17.3 32.2 44.3zm-185.7-28.1 1.1-.7 47.6-27.4 48.7 28.1v56.2l-47.1 27.2 6-35.1h-15.2l6 35.1-47.1-27.2v-54.9zm-149.7 86.4 48.7-28.1 48.7 28.1v56.2l-48.7 28.1-48.7-28.1v-54.9zm197.2 56.2-1.1.7-47.6 27.5-48.7-28.1v-56.2l48.7-28.1 48.7 28.1v54.9z"/><path d="m418.4 41.9c2.1 1.2 4.4 1.9 7.1 1.9 2.6 0 4.9-.6 7-1.8s3.7-2.9 4.9-5.2c1.2-2.2 1.8-4.8 1.8-7.8s-.6-5.6-1.8-7.8-2.8-4-4.9-5.2-4.4-1.8-7-1.8-5 .6-7 1.8c-2.1 1.2-3.7 3-4.9 5.2s-1.8 4.9-1.8 7.8.6 5.5 1.8 7.7c1.1 2.3 2.7 4 4.8 5.2zm-1.5-19.1c.8-1.8 2-3.1 3.4-4 1.5-.9 3.2-1.4 5.1-1.4s3.6.5 5.1 1.4 2.6 2.3 3.4 4c.8 1.8 1.2 3.8 1.2 6.2s-.4 4.4-1.3 6.2-2 3.1-3.5 4-3.2 1.4-5.1 1.4-3.6-.5-5-1.4c-1.5-.9-2.6-2.2-3.5-4-.8-1.7-1.2-3.8-1.2-6.1.2-2.4.6-4.5 1.4-6.3z"/><path d="m461 14.7v11.7h-14.1v-11.7h-3.8v28.6h3.8v-13.5h14.1v13.5h3.8v-28.6z"/></svg>