<?xml version="1.0" encoding="UTF-8" standalone="no"?>
<svg
   xmlns:dc="http://purl.org/dc/elements/1.1/"
   xmlns:cc="http://creativecommons.org/ns#"
   xmlns:rdf="http://www.w3.org/1999/02/22-rdf-syntax-ns#"
   xmlns:svg="http://www.w3.org/2000/svg"
   xmlns="http://www.w3.org/2000/svg"
   xmlns:sodipodi="http://sodipodi.sourceforge.net/DTD/sodipodi-0.dtd"
   xmlns:inkscape="http://www.inkscape.org/namespaces/inkscape"
   viewBox="90.81 168 165.22 86.42"
   preserveAspectRatio="xMidYMid"
   width="100%"
   height="100%"
   id="svg2"
   version="1.1"
   inkscape:version="0.48.1 "
   sodipodi:docname="Estradiol valerate.svg">
  <metadata
     id="metadata198">
    <rdf:RDF>
      <cc:Work
         rdf:about="">
        <dc:format>image/svg+xml</dc:format>
        <dc:type
           rdf:resource="http://purl.org/dc/dcmitype/StillImage" />
      </cc:Work>
    </rdf:RDF>
  </metadata>
  <defs
     id="defs196" />
  <sodipodi:namedview
     pagecolor="#ffffff"
     bordercolor="#666666"
     borderopacity="1"
     objecttolerance="10"
     gridtolerance="10"
     guidetolerance="10"
     inkscape:pageopacity="0"
     inkscape:pageshadow="2"
     inkscape:window-width="640"
     inkscape:window-height="480"
     id="namedview194"
     showgrid="false"
     inkscape:zoom="2.98542"
     inkscape:cx="82.61"
     inkscape:cy="43.21"
     inkscape:window-x="0"
     inkscape:window-y="0"
     inkscape:window-maximized="0"
     inkscape:current-layer="svg2" />
  <clipPath
     id="215">
    <rect
       x="0.3"
       y="0.3"
       width="539.4"
       height="719.15"
       id="rect5" />
  </clipPath>
  <g
     id="drawing"
     transform="matrix(0.96124124,0,0,0.96124124,6.7215445,8.1862783)">
    <path
       style="fill:#ffffff;fill-opacity:0"
       d="m 90.809998,168 165.220002,0 0,86.42 -165.220002,0 z"
       id="rect8"
       inkscape:connector-curvature="0" />
    <g
       id="page"
       clip-path="url(#215)">
      <g
         id="Solid">
        <path
           d="m 113.98,228.88 0,0 0.3,0.17 0.3,0.17 0,14.06 -0.3,0.17 -0.3,-0.17 z"
           shape-rendering="geometricPrecision"
           id="path12"
           inkscape:connector-curvature="0"
           style="fill:#000000;fill-rule:evenodd;stroke:#000000;stroke-width:0;stroke-linejoin:miter" />
        <path
           style="stroke:#000000;stroke-width:0.60000002"
           d="m 116.87,230.55 0,11.4"
           id="line14"
           inkscape:connector-curvature="0" />
      </g>
      <g
         id="g16">
        <path
           d="m 114.28,243.8 0,0 0,-0.35 0.3,-0.17 12.17,7.02 0,0.35 0,0.35 z"
           shape-rendering="geometricPrecision"
           id="path18"
           inkscape:connector-curvature="0"
           style="fill:#000000;fill-rule:evenodd;stroke:#000000;stroke-width:0;stroke-linejoin:miter" />
      </g>
      <g
         id="g20">
        <path
           d="m 126.75,251 0,0 0,-0.35 0,-0.35 12.17,-7.02 0.3,0.17 0,0.35 z"
           shape-rendering="geometricPrecision"
           id="path22"
           inkscape:connector-curvature="0"
           style="fill:#000000;fill-rule:evenodd;stroke:#000000;stroke-width:0;stroke-linejoin:miter" />
        <path
           style="stroke:#000000;stroke-width:0.60000002"
           d="m 126.75,247.66 9.88,-5.71"
           id="line24"
           inkscape:connector-curvature="0" />
      </g>
      <g
         id="g26">
        <path
           d="m 139.52,243.28 0,0 -0.3,0.17 -0.3,-0.17 0,-14.06 0.3,-0.17 0.3,0.17 z"
           shape-rendering="geometricPrecision"
           id="path28"
           inkscape:connector-curvature="0"
           style="fill:#000000;fill-rule:evenodd;stroke:#000000;stroke-width:0;stroke-linejoin:miter" />
      </g>
      <g
         id="g30">
        <path
           d="m 139.22,228.7 0,0 0,0.35 -0.3,0.17 -12.17,-7.02 0,-0.35 0,-0.35 z"
           shape-rendering="geometricPrecision"
           id="path32"
           inkscape:connector-curvature="0"
           style="fill:#000000;fill-rule:evenodd;stroke:#000000;stroke-width:0;stroke-linejoin:miter" />
        <path
           style="stroke:#000000;stroke-width:0.60000002"
           d="m 136.63,230.55 -9.88,-5.71"
           id="line34"
           inkscape:connector-curvature="0" />
      </g>
      <g
         id="g36">
        <path
           d="m 126.75,221.5 0,0 0,0.35 0,0.35 -12.17,7.02 -0.3,-0.17 -0.3,-0.17 z"
           shape-rendering="geometricPrecision"
           id="path38"
           inkscape:connector-curvature="0"
           style="fill:#000000;fill-rule:evenodd;stroke:#000000;stroke-width:0;stroke-linejoin:miter" />
      </g>
      <g
         id="g40">
        <path
           d="m 139.22,243.8 0,0 0,-0.35 0.3,-0.17 12.17,7.02 0,0.35 0,0.35 z"
           shape-rendering="geometricPrecision"
           id="path42"
           inkscape:connector-curvature="0"
           style="fill:#000000;fill-rule:evenodd;stroke:#000000;stroke-width:0;stroke-linejoin:miter" />
      </g>
      <g
         id="g44">
        <path
           d="m 151.69,251 0,0 0,-0.35 0,-0.35 12.17,-7.02 0.3,0.17 0.3,0.17 z"
           shape-rendering="geometricPrecision"
           id="path46"
           inkscape:connector-curvature="0"
           style="fill:#000000;fill-rule:evenodd;stroke:#000000;stroke-width:0;stroke-linejoin:miter" />
      </g>
      <g
         id="g48">
        <path
           d="m 164.46,243.62 0,0 -0.3,-0.17 -0.3,-0.17 0,-14.06 0.3,-0.17 0.3,0.17 z"
           shape-rendering="geometricPrecision"
           id="path50"
           inkscape:connector-curvature="0"
           style="fill:#000000;fill-rule:evenodd;stroke:#000000;stroke-width:0;stroke-linejoin:miter" />
      </g>
      <g
         id="g52">
        <path
           d="m 163.81,228.5 0,0 0.35,0.55 -0.3,0.17 -12.17,-7.02 0,-0.35 0.3,-0.17 z"
           shape-rendering="geometricPrecision"
           id="path54"
           inkscape:connector-curvature="0"
           style="fill:#000000;fill-rule:evenodd;stroke:#000000;stroke-width:0;stroke-linejoin:miter" />
      </g>
      <g
         id="g56">
        <path
           d="m 151.39,221.68 0,0 0.3,0.17 0,0.35 -12.17,7.02 -0.3,-0.17 0,-0.35 z"
           shape-rendering="geometricPrecision"
           id="path58"
           inkscape:connector-curvature="0"
           style="fill:#000000;fill-rule:evenodd;stroke:#000000;stroke-width:0;stroke-linejoin:miter" />
      </g>
      <g
         id="g60">
        <path
           d="m 164.46,229.22 0,0 -0.3,-0.17 0.35,-0.55 11.82,-6.82 0.3,0.17 0.03,0.33 z"
           shape-rendering="geometricPrecision"
           id="path62"
           inkscape:connector-curvature="0"
           style="fill:#000000;fill-rule:evenodd;stroke:#000000;stroke-width:0;stroke-linejoin:miter" />
      </g>
      <g
         id="g64">
        <path
           d="m 176.93,221.63 0,0 -0.3,0.22 -0.3,-0.17 0,-14.06 0.3,-0.17 0.3,0.22 z"
           shape-rendering="geometricPrecision"
           id="path66"
           inkscape:connector-curvature="0"
           style="fill:#000000;fill-rule:evenodd;stroke:#000000;stroke-width:0;stroke-linejoin:miter" />
      </g>
      <g
         id="g68">
        <path
           d="m 176.28,206.9 0,0 0.35,0.55 -0.3,0.17 -12.17,-7.02 0,-0.35 0,-0.35 z"
           shape-rendering="geometricPrecision"
           id="path70"
           inkscape:connector-curvature="0"
           style="fill:#000000;fill-rule:evenodd;stroke:#000000;stroke-width:0;stroke-linejoin:miter" />
      </g>
      <g
         id="g72">
        <path
           d="m 164.16,199.9 0,0 0,0.35 0,0.35 -12.17,7.02 -0.3,-0.17 -0.3,-0.17 z"
           shape-rendering="geometricPrecision"
           id="path74"
           inkscape:connector-curvature="0"
           style="fill:#000000;fill-rule:evenodd;stroke:#000000;stroke-width:0;stroke-linejoin:miter" />
      </g>
      <g
         id="g76">
        <path
           d="m 151.39,207.28 0,0 0.3,0.17 0.3,0.17 0,14.06 -0.3,0.17 -0.3,-0.17 z"
           shape-rendering="geometricPrecision"
           id="path78"
           inkscape:connector-curvature="0"
           style="fill:#000000;fill-rule:evenodd;stroke:#000000;stroke-width:0;stroke-linejoin:miter" />
      </g>
      <g
         id="g80">
        <path
           d="m 176.66,222.18 0,0 -0.03,-0.33 0.3,-0.22 13.29,4.32 0.11,0.35 0.11,0.35 z"
           shape-rendering="geometricPrecision"
           id="path82"
           inkscape:connector-curvature="0"
           style="fill:#000000;fill-rule:evenodd;stroke:#000000;stroke-width:0;stroke-linejoin:miter" />
      </g>
      <g
         id="g84">
        <path
           d="m 190.44,226.65 0,0 -0.11,-0.35 -0.11,-0.35 8.2,-11.3 0.37,0 0.37,0 z"
           shape-rendering="geometricPrecision"
           id="path86"
           inkscape:connector-curvature="0"
           style="fill:#000000;fill-rule:evenodd;stroke:#000000;stroke-width:0;stroke-linejoin:miter" />
      </g>
      <g
         id="g88">
        <path
           d="m 199.16,214.65 0,0 -0.37,0 -0.37,0 -8.2,-11.3 0.11,-0.35 0.34,-0.04 z"
           shape-rendering="geometricPrecision"
           id="path90"
           inkscape:connector-curvature="0"
           style="fill:#000000;fill-rule:evenodd;stroke:#000000;stroke-width:0;stroke-linejoin:miter" />
      </g>
      <g
         id="g92">
        <path
           d="m 190.08,202.77 0,0 0.25,0.23 -0.11,0.35 -13.29,4.32 -0.3,-0.22 0.34,-0.42 z"
           shape-rendering="geometricPrecision"
           id="path94"
           inkscape:connector-curvature="0"
           style="fill:#000000;fill-rule:evenodd;stroke:#000000;stroke-width:0;stroke-linejoin:miter" />
      </g>
      <g
         id="WedgeBegin">
        <path
           d="m 176.97,207.03 0,0 -0.34,0.42 -0.35,-0.55 -1.15,-13.85 1.5,0 1.5,0 z"
           shape-rendering="geometricPrecision"
           id="path97"
           inkscape:connector-curvature="0"
           style="fill:#000000;fill-rule:evenodd;stroke:#000000;stroke-width:0;stroke-linejoin:miter" />
      </g>
      <g
         id="g99">
        <g
           style="text-anchor:start"
           id="text101">
          <path
             d="m 161.37079,218.23 0,-7.15821 0.94726,0 0,2.93946 3.72071,0 0,-2.93946 0.94726,0 0,7.15821 -0.94726,0 0,-3.37403 -3.72071,0 0,3.37403 z"
             style="font-size:10px;fill:#000000;font-family:Arial"
             id="path3180"
             inkscape:connector-curvature="0" />
        </g>
      </g>
      <g
         id="g105">
        <path
           d="m 164.51,228.5 0,0 -0.35,0.55 -0.35,-0.55 -1.15,-8.6 1.5,0 1.5,0 z"
           shape-rendering="geometricPrecision"
           id="path107"
           inkscape:connector-curvature="0"
           style="fill:#000000;fill-rule:evenodd;stroke:#000000;stroke-width:0;stroke-linejoin:miter" />
      </g>
      <g
         id="g109">
        <g
           style="text-anchor:start"
           id="text111">
          <path
             d="m 191.3434,189.54367 c 0,-1.18815 0.31901,-2.11832 0.95703,-2.79053 0.63802,-0.67219 1.46159,-1.00829 2.4707,-1.0083 0.66081,1e-5 1.25651,0.15789 1.78711,0.47364 0.5306,0.31576 0.93505,0.75602 1.21338,1.3208 0.27831,0.56478 0.41747,1.20524 0.41748,1.92138 -1e-5,0.72592 -0.14649,1.37533 -0.43945,1.94825 -0.29298,0.57291 -0.70801,1.00667 -1.24512,1.30126 -0.53711,0.2946 -1.11654,0.4419 -1.73828,0.4419 -0.67383,0 -1.27604,-0.16276 -1.80664,-0.48828 -0.5306,-0.32552 -0.93262,-0.76986 -1.20605,-1.33301 -0.27344,-0.56315 -0.41016,-1.15885 -0.41016,-1.78711 z m 0.97656,0.0147 c 0,0.86263 0.23193,1.54216 0.6958,2.03857 0.46387,0.49642 1.04573,0.74463 1.74561,0.74463 0.71288,0 1.29963,-0.25065 1.76025,-0.75195 0.46061,-0.5013 0.69091,-1.21256 0.69092,-2.13379 -1e-5,-0.58268 -0.0985,-1.0913 -0.29541,-1.52588 -0.19695,-0.43456 -0.48503,-0.77148 -0.86426,-1.01074 -0.37923,-0.23925 -0.80485,-0.35888 -1.27685,-0.35889 -0.67058,1e-5 -1.24757,0.23031 -1.73096,0.69092 -0.4834,0.46062 -0.7251,1.22966 -0.7251,2.30713 z"
             style="font-size:10px;fill:#000000;font-family:Arial"
             id="path3183"
             inkscape:connector-curvature="0" />
        </g>
      </g>
      <g
         id="g115">
        <path
           d="m 190.67,202.96 0,0 -0.34,0.04 -0.25,-0.23 1.51,-8.51 1.43,0.46 1.42,0.46 z"
           shape-rendering="geometricPrecision"
           id="path117"
           inkscape:connector-curvature="0"
           style="fill:#000000;fill-rule:evenodd;stroke:#000000;stroke-width:0;stroke-linejoin:miter" />
      </g>
      <g
         id="g119">
        <path
           d="m 199.83,188.58 0,0 -0.06,-0.29 -0.07,-0.3 9.21,-1.95 -0.11,0.33 -0.11,0.33 z"
           shape-rendering="geometricPrecision"
           id="path121"
           inkscape:connector-curvature="0"
           style="fill:#000000;fill-rule:evenodd;stroke:#000000;stroke-width:0;stroke-linejoin:miter" />
      </g>
      <g
         id="g123">
        <path
           d="m 208.69,186.7 0,0 0.11,-0.33 0.11,-0.33 9.6,10.66 -0.11,0.33 -0.11,0.33 z"
           shape-rendering="geometricPrecision"
           id="path125"
           inkscape:connector-curvature="0"
           style="fill:#000000;fill-rule:evenodd;stroke:#000000;stroke-width:0;stroke-linejoin:miter" />
      </g>
      <g
         id="g127">
        <g
           style="text-anchor:start"
           id="text129">
          <path
             d="m 209.8134,172.91367 c 0,-1.18815 0.31901,-2.11833 0.95703,-2.79053 0.63802,-0.6722 1.46159,-1.0083 2.4707,-1.0083 0.66081,0 1.25651,0.15788 1.78711,0.47363 0.5306,0.31576 0.93506,0.75603 1.21338,1.3208 0.27832,0.56478 0.41748,1.20525 0.41748,1.92139 0,0.72591 -0.14649,1.37533 -0.43945,1.94824 -0.29298,0.57292 -0.70801,1.00667 -1.24512,1.30127 -0.53711,0.2946 -1.11654,0.44189 -1.73828,0.44189 -0.67383,0 -1.27604,-0.16276 -1.80664,-0.48828 -0.5306,-0.32552 -0.93262,-0.76985 -1.20605,-1.333 -0.27344,-0.56315 -0.41016,-1.15886 -0.41016,-1.78711 z m 0.97656,0.0146 c 0,0.86264 0.23193,1.54216 0.6958,2.03858 0.46387,0.49642 1.04574,0.74463 1.74561,0.74463 0.71289,0 1.29964,-0.25065 1.76025,-0.75196 0.46061,-0.5013 0.69091,-1.21256 0.69092,-2.13378 -10e-6,-0.58268 -0.0985,-1.09131 -0.29541,-1.52588 -0.19695,-0.43457 -0.48503,-0.77148 -0.86426,-1.01075 -0.37923,-0.23925 -0.80485,-0.35888 -1.27685,-0.35888 -0.67058,0 -1.24756,0.23031 -1.73096,0.69092 -0.4834,0.46061 -0.7251,1.22965 -0.7251,2.30712 z"
             style="font-size:10px;fill:#000000;font-family:Arial"
             id="path3186"
             inkscape:connector-curvature="0" />
        </g>
      </g>
      <g
         id="g133">
        <path
           style="stroke:#000000;stroke-width:0.60000002"
           d="M 207.57001,185.97 210.25,177.72"
           id="line135"
           inkscape:connector-curvature="0" />
        <path
           d="m 209.67,186.89 0,0 0.47,0.52 2.85,-8.8 -0.57,-0.18 z"
           shape-rendering="geometricPrecision"
           id="path137"
           inkscape:connector-curvature="0"
           style="fill:#000000;fill-rule:evenodd;stroke:#000000;stroke-width:0;stroke-linejoin:miter" />
        <path
           d="m 207.11,186.42 0,0 0.68,-0.14 2.74,-8.46 -0.57,-0.19 z"
           shape-rendering="geometricPrecision"
           id="path139"
           inkscape:connector-curvature="0"
           style="fill:#000000;fill-rule:evenodd;stroke:#000000;stroke-width:0;stroke-linejoin:miter" />
      </g>
      <g
         id="g141">
        <path
           d="m 218.29,197.36 0,0 0.11,-0.33 0.11,-0.33 14.04,-2.98 -0.11,0.33 -0.11,0.33 z"
           shape-rendering="geometricPrecision"
           id="path143"
           inkscape:connector-curvature="0"
           style="fill:#000000;fill-rule:evenodd;stroke:#000000;stroke-width:0;stroke-linejoin:miter" />
      </g>
      <g
         id="g145">
        <g
           style="text-anchor:end"
           id="text147">
          <path
             d="m 91.560783,254.3 0,-7.1582 0.947266,0 0,2.93945 3.720703,0 0,-2.93945 0.947266,0 0,7.1582 -0.947266,0 0,-3.37402 -3.720703,0 0,3.37402 z"
             style="font-size:10px;fill:#000000;font-family:Arial"
             id="path3190"
             inkscape:connector-curvature="0" />
          <path
             d="m 98.469963,250.81367 c 0,-1.18814 0.31901,-2.11832 0.957031,-2.79052 0.638016,-0.6722 1.461586,-1.0083 2.470706,-1.0083 0.6608,0 1.2565,0.15788 1.78711,0.47363 0.53059,0.31576 0.93505,0.75603 1.21338,1.3208 0.27831,0.56478 0.41747,1.20525 0.41748,1.92139 -1e-5,0.72591 -0.1465,1.37532 -0.43946,1.94824 -0.29297,0.57292 -0.70801,1.00667 -1.24511,1.30127 -0.53712,0.2946 -1.11655,0.44189 -1.73829,0.44189 -0.67383,0 -1.27604,-0.16276 -1.80664,-0.48828 -0.530597,-0.32552 -0.932614,-0.76985 -1.206051,-1.33301 -0.273438,-0.56314 -0.410156,-1.15885 -0.410156,-1.78711 z m 0.976563,0.0146 c -2e-6,0.86264 0.231931,1.54216 0.695804,2.03858 0.46386,0.49642 1.04573,0.74463 1.7456,0.74463 0.71289,0 1.29964,-0.25065 1.76026,-0.75196 0.4606,-0.5013 0.69091,-1.21256 0.69091,-2.13379 0,-0.58267 -0.0985,-1.0913 -0.29541,-1.52587 -0.19694,-0.43457 -0.48503,-0.77148 -0.86425,-1.01075 -0.37924,-0.23925 -0.80486,-0.35888 -1.27686,-0.35888 -0.67058,0 -1.24756,0.23031 -1.73096,0.69091 -0.483397,0.46062 -0.725096,1.22966 -0.725094,2.30713 z"
             style="font-size:10px;fill:#000000;font-family:Arial"
             id="path3192"
             inkscape:connector-curvature="0" />
        </g>
      </g>
      <g
         id="g151">
        <path
           d="m 113.98,243.28 0,0 0.3,0.17 0,0.35 -7.64,4.41 -0.15,-0.26 -0.15,-0.26 z"
           shape-rendering="geometricPrecision"
           id="path153"
           inkscape:connector-curvature="0"
           style="fill:#000000;fill-rule:evenodd;stroke:#000000;stroke-width:0;stroke-linejoin:miter" />
      </g>
      <g
         id="g155">
        <g
           style="text-anchor:start"
           id="text157">
          <path
             d="m 148.90079,239.82001 0,-7.15821 0.94726,0 0,2.93946 3.72071,0 0,-2.93946 0.94726,0 0,7.15821 -0.94726,0 0,-3.37403 -3.72071,0 0,3.37403 z"
             style="font-size:10px;fill:#000000;font-family:Arial"
             id="path3195"
             inkscape:connector-curvature="0" />
        </g>
      </g>
      <g
         id="Wedged Hash Begin Bond">
        <path
           d="m 151.39,221.85 0,0 0.6,0 0.08,0.6 -0.76,0 z"
           shape-rendering="geometricPrecision"
           id="path162"
           inkscape:connector-curvature="0"
           style="fill:#000000;fill-rule:evenodd;stroke:#000000;stroke-width:0;stroke-linejoin:miter" />
        <path
           d="m 151.02,224.73 0,0 1.34,0 0.08,0.6 -1.5,0 z"
           shape-rendering="geometricPrecision"
           id="path164"
           inkscape:connector-curvature="0"
           style="fill:#000000;fill-rule:evenodd;stroke:#000000;stroke-width:0;stroke-linejoin:miter" />
        <path
           d="m 150.64,227.62 0,0 2.1,0 0.08,0.6 -2.26,0 z"
           shape-rendering="geometricPrecision"
           id="path166"
           inkscape:connector-curvature="0"
           style="fill:#000000;fill-rule:evenodd;stroke:#000000;stroke-width:0;stroke-linejoin:miter" />
        <path
           d="m 150.27,230.5 0,0 2.84,0 0.08,0.6 -3,0 z"
           shape-rendering="geometricPrecision"
           id="path168"
           inkscape:connector-curvature="0"
           style="fill:#000000;fill-rule:evenodd;stroke:#000000;stroke-width:0;stroke-linejoin:miter" />
      </g>
      <g
         id="g170">
        <g
           style="text-anchor:start"
           id="text172">
          <path
             d="m 173.84077,239.82001 0,-7.15821 0.94727,0 0,2.93946 3.7207,0 0,-2.93946 0.94727,0 0,7.15821 -0.94727,0 0,-3.37403 -3.7207,0 0,3.37403 z"
             style="font-size:10px;fill:#000000;font-family:Arial"
             id="path3198"
             inkscape:connector-curvature="0" />
        </g>
      </g>
      <g
         id="g176">
        <path
           d="m 176.33,221.85 0,0 0.6,0 0.08,0.6 -0.76,0 z"
           shape-rendering="geometricPrecision"
           id="path178"
           inkscape:connector-curvature="0"
           style="fill:#000000;fill-rule:evenodd;stroke:#000000;stroke-width:0;stroke-linejoin:miter" />
        <path
           d="m 175.96,224.73 0,0 1.34,0 0.08,0.6 -1.5,0 z"
           shape-rendering="geometricPrecision"
           id="path180"
           inkscape:connector-curvature="0"
           style="fill:#000000;fill-rule:evenodd;stroke:#000000;stroke-width:0;stroke-linejoin:miter" />
        <path
           d="m 175.58,227.62 0,0 2.1,0 0.08,0.6 -2.26,0 z"
           shape-rendering="geometricPrecision"
           id="path182"
           inkscape:connector-curvature="0"
           style="fill:#000000;fill-rule:evenodd;stroke:#000000;stroke-width:0;stroke-linejoin:miter" />
        <path
           d="m 175.21,230.5 0,0 2.84,0 0.08,0.6 -3,0 z"
           shape-rendering="geometricPrecision"
           id="path184"
           inkscape:connector-curvature="0"
           style="fill:#000000;fill-rule:evenodd;stroke:#000000;stroke-width:0;stroke-linejoin:miter" />
      </g>
      <g
         id="g186">
        <path
           d="m 232.33,194.38 0,0 0.11,-0.33 0.11,-0.33 9.59,10.65 -0.1,0.34 -0.1,0.34 z"
           shape-rendering="geometricPrecision"
           id="path188"
           inkscape:connector-curvature="0"
           style="fill:#000000;fill-rule:evenodd;stroke:#000000;stroke-width:0;stroke-linejoin:miter" />
      </g>
      <g
         id="g190">
        <path
           d="m 241.94,205.05 0,0 0.1,-0.34 0.1,-0.34 13.73,-3.67 0.08,0.29 0.08,0.29 z"
           shape-rendering="geometricPrecision"
           id="path192"
           inkscape:connector-curvature="0"
           style="fill:#000000;fill-rule:evenodd;stroke:#000000;stroke-width:0;stroke-linejoin:miter" />
      </g>
    </g>
  </g>
</svg>
