<?xml version="1.0" encoding="UTF-8" standalone="no"?>
<!-- Created with Inkscape (http://www.inkscape.org/) -->

<svg
   width="1024"
   height="512"
   viewBox="0 0 270.93334 135.46667"
   version="1.1"
   id="svg5"
   xmlns="http://www.w3.org/2000/svg"
   xmlns:svg="http://www.w3.org/2000/svg">
  <defs
     id="defs2">
    <linearGradient
       id="linearGradient94608">
      <stop
         style="stop-color:#000000;stop-opacity:1;"
         offset="0"
         id="stop94606" />
    </linearGradient>
    <linearGradient
       id="linearGradient94187">
      <stop
         style="stop-color:#000000;stop-opacity:1;"
         offset="0"
         id="stop94185" />
    </linearGradient>
  </defs>
  <g
     id="layer1">
    <text
       xml:space="preserve"
       style="font-size:70.5556px;line-height:0.55;font-family:sans-serif;direction:rtl;stroke:#000000;stroke-width:0.264583;stroke-linecap:butt;stroke-linejoin:miter;stroke-miterlimit:4;stroke-dasharray:none;stroke-opacity:1"
       x="125.08749"
       y="64.736526"
       id="text561"><tspan
         style="font-style:normal;font-variant:normal;font-weight:normal;font-stretch:normal;font-size:70.5556px;font-family:'Neutraface 2 Text';-inkscape-font-specification:'Neutraface 2 Text';text-align:center;letter-spacing:1.38377px;direction:ltr;text-anchor:middle;stroke:#000000;stroke-width:0.264583;stroke-linecap:butt;stroke-linejoin:miter;stroke-miterlimit:4;stroke-dasharray:none;stroke-opacity:1"
         x="0"
         y="0"
         id="tspan36630"><tspan
           id="tspan33868"
           style="font-style:normal;font-variant:normal;font-weight:normal;font-stretch:normal;font-size:70.5556px;font-family:'Neutraface 2 Text';-inkscape-font-specification:'Neutraface 2 Text';text-align:center;direction:ltr;text-anchor:middle;stroke:#000000;stroke-width:0.264583;stroke-linecap:butt;stroke-linejoin:miter;stroke-miterlimit:4;stroke-dasharray:none;stroke-opacity:1" /></tspan></text>
    <g
       aria-label="MtF wiki"
       id="text40004"
       style="font-size:70.5556px;line-height:0.55;letter-spacing:0px;direction:rtl;stroke:#000000;stroke-width:0.264583;stroke-linecap:butt;stroke-linejoin:miter;stroke-miterlimit:4;stroke-dasharray:none;stroke-opacity:1">
      <path
         d="m 10.758708,71.499794 h 7.126116 V 46.593666 c 0,-2.610557 -0.282223,-6.702782 -0.282223,-6.843893 0.211667,0.282222 2.469446,3.668891 4.233336,5.715003 l 12.065009,14.534455 h 0.846667 L 46.812621,45.464776 c 1.905001,-2.116668 4.162781,-5.573892 4.303892,-5.715003 0,0.141111 -0.282223,4.233336 -0.282223,6.843893 v 24.906128 h 7.126116 V 23.028095 H 57.184295 L 34.46539,49.839224 11.534819,23.028095 h -0.776111 z"
         style="font-family:'Neutraface 2 Text';-inkscape-font-specification:'Neutraface 2 Text';direction:ltr;fill:#5bcefa;fill-opacity:1;stroke:#000000;stroke-width:0.264583;stroke-linecap:butt;stroke-linejoin:miter;stroke-miterlimit:4;stroke-dasharray:none;stroke-opacity:1"
         id="path89362" />
      <path
         id="path89364"
         style="font-family:'Neutraface 2 Text';-inkscape-font-specification:'Neutraface 2 Text';direction:ltr;fill:#fffffd;fill-opacity:1;fill-rule:nonzero;stroke:#000000;stroke-width:1;stroke-linecap:butt;stroke-linejoin:miter;stroke-miterlimit:4;stroke-dasharray:none;stroke-opacity:1"
         d="m 266.5293,100.82422 v 43.19922 h -16.80078 v 22.66797 h 16.80078 v 51.46679 c 0,29.86669 14.66704,40.53321 34.40039,40.53321 2.39108,0 4.60928,-0.1393 6.67383,-0.39258 v 164 h 26.93359 v -33.06836 l 14.13281,-14.66602 33.86719,47.73438 h 31.73437 l -46.93359,-65.33399 41.33203,-46.66601 h -30.66601 l -44.80079,50.39844 c 0.53334,-5.86668 1.33399,-12.79909 1.33399,-19.73243 V 229.76367 h -15.6582 l -0.084,-0.13867 c -0.054,0.0442 -0.11514,0.0938 -0.16992,0.13867 h -11.02148 v 5.51367 c -0.9194,0.13305 -1.89287,0.21289 -2.94141,0.21289 -6.93334,0 -11.19922,-3.73215 -11.19922,-16.79882 v -52 h 29.86719 v -22.66797 h -29.86719 v -43.19922 z"
         transform="scale(0.26458334)" />
      <path
         d="m 94.790298,71.499794 h 7.478892 V 52.167559 h 20.32002 V 45.535332 H 102.26919 V 30.083655 h 22.43668 V 23.521984 H 94.790298 Z"
         style="font-family:'Neutraface 2 Text';-inkscape-font-specification:'Neutraface 2 Text';direction:ltr;fill:#f5a9b8;fill-opacity:1;stroke:#000000;stroke-width:0.264583;stroke-linecap:butt;stroke-linejoin:miter;stroke-miterlimit:4;stroke-dasharray:none;stroke-opacity:1"
         id="path89366" />
      <path
         d="m 23.884269,112.43858 h 0.776112 l 7.620005,-14.393342 c 0.917223,-1.76389 1.76389,-4.65667 1.834446,-4.938892 0.07055,0.282222 0.705556,3.175002 1.693334,4.938892 l 7.337783,14.393342 H 43.92206 L 56.904291,82.099672 H 49.778175 L 44.909839,94.79968 c -0.846667,2.187224 -1.76389,5.57389 -1.76389,5.57389 0,0 -1.058334,-3.457222 -2.116668,-5.57389 L 34.46761,81.535227 h -0.705556 l -6.350005,12.700008 c -1.128889,2.187224 -2.046112,5.573893 -2.046112,5.573893 0,0 -0.917223,-3.316113 -1.76389,-5.573893 L 18.874821,82.099672 h -7.902227 z"
         style="font-family:'Neutraface 2 Text';-inkscape-font-specification:'Neutraface 2 Text';letter-spacing:1.05833px;direction:ltr;fill:#5bcefa;fill-opacity:1;stroke:#000000;stroke-width:0.264583;stroke-linecap:butt;stroke-linejoin:miter;stroke-miterlimit:4;stroke-dasharray:none;stroke-opacity:1"
         id="path89368" />
      <path
         d="m 67.487591,75.326334 c 2.540002,0 4.727226,-1.905001 4.727226,-4.727226 0,-2.681112 -2.187224,-4.656669 -4.727226,-4.656669 -2.540001,0 -4.727225,1.975557 -4.727225,4.656669 0,2.822225 2.187224,4.727226 4.727225,4.727226 z m -3.598335,36.406696 h 7.196671 V 82.099672 h -7.196671 z"
         style="font-family:'Neutraface 2 Text';-inkscape-font-specification:'Neutraface 2 Text';letter-spacing:1.05833px;direction:ltr;fill:#f5a9b8;fill-opacity:1;stroke:#000000;stroke-width:0.264583;stroke-linecap:butt;stroke-linejoin:miter;stroke-miterlimit:4;stroke-dasharray:none;stroke-opacity:1"
         id="path89370" />
      <path
         style="font-family:'Neutraface 2 Text';-inkscape-font-specification:'Neutraface 2 Text';letter-spacing:1.05833px;direction:ltr;fill:#f5a9b8;fill-opacity:1;stroke:#000000;stroke-width:0.264583;stroke-linecap:butt;stroke-linejoin:miter;stroke-miterlimit:4;stroke-dasharray:none;stroke-opacity:1"
         d="m 116.3824,111.73303 h 7.19667 V 82.099672 h -7.19667 z"
         id="path92085" />
      <path
         style="font-family:'Neutraface 2 Text';-inkscape-font-specification:'Neutraface 2 Text';letter-spacing:1.05833px;direction:ltr;fill:#f5a9b8;fill-opacity:1;fill-rule:nonzero;stroke:#000000;stroke-width:0.264583;stroke-linecap:butt;stroke-linejoin:miter;stroke-miterlimit:4;stroke-dasharray:none;stroke-opacity:1"
         d="m 119.98074,75.326334 c 2.54,0 4.72722,-1.905001 4.72722,-4.727226 0,-2.681112 -2.18722,-4.656669 -4.72722,-4.656669 -2.54001,0 -4.72723,1.975557 -4.72723,4.656669 0,2.822225 2.18722,4.727226 4.72723,4.727226 z"
         id="path89374" />
    </g>
  </g>
  <text
     xml:space="preserve"
     style="font-style:normal;font-variant:normal;font-weight:300;font-stretch:normal;font-size:105.833px;line-height:1.25;font-family:'Futura LT Pro';-inkscape-font-specification:'Futura LT Pro Light';letter-spacing:0px;stroke-width:0.26458334;fill:#000000;fill-opacity:1;stroke:#fffffb;stroke-opacity:1;stroke-miterlimit:4;stroke-dasharray:none"
     x="119.95753"
     y="116.65675"
     id="text4620"><tspan
       id="tspan4618"
       style="font-style:normal;font-variant:normal;font-weight:normal;font-stretch:normal;font-size:105.833px;font-family:STHeiti-SC;-inkscape-font-specification:STHeiti-SC;stroke-width:0.26458334;fill:#000000;fill-opacity:1;stroke:#fffffb;stroke-opacity:1;stroke-miterlimit:4;stroke-dasharray:none"
       x="119.95753"
       y="116.65675"
       dx="0 -15"
       dy="0 0">.cn</tspan></text>
  <text
     xml:space="preserve"
     style="font-size:22.5778px;line-height:1.25;font-family:sans-serif;stroke-width:0.264583"
     x="141.71072"
     y="37.592342"
     id="text35788"><tspan
       id="tspan35786"
       style="font-style:italic;font-variant:normal;font-weight:normal;font-stretch:normal;font-size:22.5778px;font-family:'Futura LT Pro';-inkscape-font-specification:'Futura LT Pro Italic';stroke-width:0.264583"
       x="141.71072"
       y="37.592342">a mirror site</tspan></text>
</svg>
