<?xml version="1.0" encoding="UTF-8"?>
<svg width="267px" height="244px" viewBox="0 0 267 244" version="1.1" xmlns="http://www.w3.org/2000/svg" xmlns:xlink="http://www.w3.org/1999/xlink">
    <title>编组 2</title>
    <defs>
        <radialGradient cx="-5.37764278e-15%" cy="-4.33075445e-15%" fx="-5.37764278e-15%" fy="-4.33075445e-15%" r="109.259467%" gradientTransform="translate(-0.000000,-0.000000),scale(0.892710,1.000000),rotate(43.678321),translate(0.000000,0.000000)" id="radialGradient-1">
            <stop stop-color="#FFFFFF" offset="0%"></stop>
            <stop stop-color="#FFEBEB" offset="0%"></stop>
            <stop stop-color="#EAACB8" offset="54.1903409%"></stop>
            <stop stop-color="#7ACBF5" offset="100%"></stop>
        </radialGradient>
        <path d="M78.3854855,5.14572274e-15 L78.3854855,24.3289566 L40.571951,24.3287477 C38.7846771,33.8268791 30.4613876,41.0116697 20.4634674,41.0116697 C9.16180645,41.0116697 0,31.8308947 0,20.5058349 C0,9.18077499 9.16180645,1.59300906e-15 20.4634674,1.59300906e-15 C20.5793117,1.59300906e-15 20.6949312,0.000964592699 20.8103182,0.00288620013 L78.3854855,5.14572274e-15 Z" id="path-2"></path>
    </defs>
    <g id="MtF-Wiki-new-Logo" stroke="none" stroke-width="1" fill="none" fill-rule="evenodd">
        <g id="MtF-Wiki" transform="translate(-67.000000, -78.000000)">
            <g id="编组-2" transform="translate(67.000000, 78.000000)">
                <g id="编组-8" transform="translate(1.036038, 0.000000)" fill="url(#radialGradient-1)">
                    <path d="M80.494363,7.00310822 L103.885171,0.880155269 C112.433697,-1.35757098 121.177683,3.75834334 123.415409,12.3068697 C123.761663,13.6296247 123.936933,14.9913083 123.936933,16.3586315 L123.936933,88.1582024 C123.936933,95.434268 119.027595,101.794123 111.988695,103.636679 L88.5978866,109.759632 C80.0493602,111.997358 71.3053748,106.881444 69.0676486,98.3329171 C68.7213943,97.0101621 68.5461248,95.6484786 68.5461248,94.2811554 L68.5461248,22.4815845 C68.5461248,15.2055189 73.4554625,8.8456635 80.494363,7.00310822 Z M20.0517618,0.880155269 L43.4425697,7.00310822 C50.4814702,8.8456635 55.3908079,15.2055189 55.3908079,22.4815845 L55.3908079,94.2811554 C55.3908079,103.117711 48.2273639,110.281155 39.3908079,110.281155 C38.0234847,110.281155 36.6618012,110.105886 35.3390461,109.759632 L11.9482382,103.636679 C4.90933772,101.794123 8.9106104e-16,95.434268 0,88.1582024 L0,16.3586315 C-2.85852284e-15,7.5220755 7.163444,0.3586315 16,0.3586315 C17.3673232,0.3586315 18.7290068,0.533901018 20.0517618,0.880155269 Z" id="形状结合"></path>
                </g>
                <g id="编组-7" transform="translate(0.000000, 132.128419)">
                    <g id="编组-6" transform="translate(0.000000, 0.000000)">
                        <g id="编组-4" transform="translate(53.789620, 55.763398) scale(-1, -1) rotate(90.000000) translate(-53.789620, -55.763398) translate(-1.973778, 1.973778)" fill="#7ACBF5">
                            <path d="M69.4224943,35.048629 C76.2398406,35.2504897 81.7177303,40.7322898 81.9147262,47.5497784 L83.3997991,98.944081 C83.5825491,105.268559 78.603695,110.543709 72.2792171,110.726459 C72.0559398,110.732911 71.8325217,110.732831 71.6092491,110.72622 C64.7919028,110.52436 59.3140131,105.04256 59.1170171,98.225071 L57.6319443,46.8307684 C57.4491942,40.5062905 62.4280484,35.23114 68.7525263,35.04839 C68.9758035,35.0419382 69.1992217,35.0420179 69.4224943,35.048629 Z" id="矩形" fill-opacity="0.8" transform="translate(70.515872, 72.887425) scale(-1, 1) rotate(50.000000) translate(-70.515872, -72.887425) "></path>
                            <rect id="矩形" x="-1.31436548e-14" y="78.4058449" width="104.051529" height="26.4142958" rx="13.2071479"></rect>
                            <path d="M52.3036533,-34.7888129 C59.5977597,-34.7888129 65.5108012,-28.8757714 65.5108012,-21.5816651 L65.5108012,56.0555338 C65.5108012,63.3496402 59.5977597,69.2626817 52.3036533,69.2626817 C45.009547,69.2626817 39.0965055,63.3496402 39.0965055,56.0555338 L39.0965055,-21.5816651 C39.0965055,-28.8757714 45.009547,-34.7888129 52.3036533,-34.7888129 Z" id="矩形" transform="translate(52.303653, 17.236934) rotate(90.000000) translate(-52.303653, -17.236934) "></path>
                            <path d="M70.8074062,-3.98728218 C77.6250444,-3.77306336 83.0938291,1.71864469 83.2795287,8.53711932 L84.8097489,64.7234002 C84.9819865,71.0475826 79.9948499,76.3139716 73.6706675,76.4862093 C73.4468276,76.4923055 73.2228571,76.4918371 72.9990447,76.4848046 C66.1814064,76.2705858 60.7126217,70.7788777 60.5269221,63.9604031 L58.9967019,7.77412217 C58.8244643,1.44993976 63.8116009,-3.81644922 70.1357833,-3.98868685 C70.3596232,-3.99478308 70.5835937,-3.99431466 70.8074062,-3.98728218 Z" id="矩形" transform="translate(71.903225, 36.248761) rotate(50.000000) translate(-71.903225, -36.248761) "></path>
                        </g>
                        <g id="编组-4" transform="translate(230.411854, 59.738102) scale(-1, -1) translate(-230.411854, -59.738102) translate(194.340657, 7.604624)" fill="#EAACB8">
                            <rect id="矩形" x="-2.62873096e-14" y="79.2428873" width="72.1423937" height="25.0240697" rx="12.5120348"></rect>
                            <rect id="矩形" fill-opacity="0.8" x="-2.62873096e-14" y="39.6214436" width="72.1423937" height="25.0240697" rx="12.5120348"></rect>
                            <path d="M20.0089152,38.9536181 L97.9161514,38.9536181 C105.195187,38.9536181 111.096012,44.8544426 111.096012,52.1334785 C111.096012,59.4125144 105.195187,65.3133389 97.9161514,65.3133389 L20.0089152,65.3133389 C12.7298793,65.3133389 6.82905483,59.4125144 6.82905483,52.1334785 C6.82905483,44.8544426 12.7298793,38.9536181 20.0089152,38.9536181 Z" id="矩形" transform="translate(58.962533, 52.133478) rotate(90.000000) translate(-58.962533, -52.133478) "></path>
                        </g>
                        <g id="编组-4" transform="translate(149.324855, 72.597694) scale(-1, -1) rotate(90.000000) translate(-149.324855, -72.597694) translate(110.132113, 44.024713)">
                            <g id="编组" transform="translate(-0.000000, 0.000000)">
                                <path d="M35.1878336,16.1312839 L67.4504014,16.1312839 C74.281253,16.1312839 79.8187524,21.6687832 79.8187524,28.4996349 C79.8187524,35.3304866 74.281253,40.8679859 67.4504014,40.8679859 L35.1878336,40.8679859 C28.356982,40.8679859 22.8194826,35.3304866 22.8194826,28.4996349 C22.8194826,21.6687832 28.356982,16.1312839 35.1878336,16.1312839 Z" id="矩形" fill-opacity="0.8" fill="#AFBCD8" transform="translate(51.319117, 28.499635) rotate(90.000000) translate(-51.319117, -28.499635) "></path>
                                <g id="编组-9" transform="translate(0.000000, 16.134292)">
                                    <g id="编组-10" transform="translate(0.000000, 0.000000)">
                                        <mask id="mask-3" fill="white">
                                            <use xlink:href="#path-2"></use>
                                        </mask>
                                        <g id="蒙版"></g>
                                        <g mask="url(#mask-3)" fill="#AFBCD8" id="矩形">
                                            <g transform="translate(0.000000, -0.000000)">
                                                <path d="M39.0720885,-26.4061743 C45.8514664,-26.4061743 51.3472382,-20.9104026 51.3472382,-14.1310246 L51.3472382,38.681324 C51.3472382,45.460702 45.8514664,50.9564737 39.0720885,50.9564737 C32.2927105,50.9564737 26.7969388,45.460702 26.7969388,38.681324 L26.7969388,-14.1310246 C26.7969388,-20.9104026 32.2927105,-26.4061743 39.0720885,-26.4061743 Z" transform="translate(39.072088, 12.275150) rotate(90.000000) translate(-39.072088, -12.275150) "></path>
                                                <path d="M13.2845026,0.257581464 C20.6213309,0.257581464 26.5690053,6.20525589 26.5690053,13.5420841 L26.5690053,21.3434979 C26.5690053,28.6803262 20.6213309,34.6280006 13.2845026,34.6280006 C5.94767442,34.6280006 -8.7785452e-16,28.6803262 0,21.3434979 L0,13.5420841 C-8.98502319e-16,6.20525589 5.94767442,0.257581464 13.2845026,0.257581464 Z"></path>
                                            </g>
                                        </g>
                                    </g>
                                </g>
                            </g>
                        </g>
                    </g>
                </g>
            </g>
        </g>
    </g>
</svg>