<svg height="512" viewBox="0 0 135.47 135.47" width="512" xmlns="http://www.w3.org/2000/svg"><g stroke="#000" stroke-width=".26458"><path d="m10.759 71.5h7.1261v-24.906c0-2.6106-.28222-6.7028-.28222-6.8439.21167.28222 2.4694 3.6689 4.2333 5.715l12.065 14.534h.84667l12.065-14.534c1.905-2.1167 4.1628-5.5739 4.3039-5.715 0 .14111-.28222 4.2333-.28222 6.8439v24.906h7.1261v-48.472h-.77611l-22.719 26.811-22.931-26.811h-.77611z" fill="#5bcefa" stroke-width=".26458"/><path d="m266.53 100.82v43.199h-16.801v22.668h16.801v51.467c0 29.867 14.667 40.533 34.4 40.533 2.3911 0 4.6093-.1393 6.6738-.39258v164h26.934v-33.068l14.133-14.666 33.867 47.734h31.734l-46.934-65.334 41.332-46.666h-30.666l-44.801 50.398c.53334-5.8667 1.334-12.799 1.334-19.732v-111.2h-15.658l-.08399-.13867c-.05404.04422-.11514.09376-.16992.13867h-11.021v5.5137c-.9194.13305-1.8929.21289-2.9414.21289-6.9333 0-11.199-3.7322-11.199-16.799v-52h29.867v-22.668h-29.867v-43.199h-26.934z" fill="#fffffd" stroke-width="1" transform="scale(.26458)"/><g stroke-width=".26458"><path d="m94.79 71.5h7.4789v-19.332h20.32v-6.6322h-20.32v-15.452h22.437v-6.5617h-29.916z" fill="#f5a9b8"/><path d="m23.884 112.44h.77611l7.62-14.393c.91722-1.7639 1.7639-4.6567 1.8344-4.9389.07055.28222.70556 3.175 1.6933 4.9389l7.3378 14.393h.77611l12.982-30.339h-7.1261l-4.8683 12.7c-.84667 2.1872-1.7639 5.5739-1.7639 5.5739s-1.0583-3.4572-2.1167-5.5739l-6.5617-13.264h-.70556l-6.35 12.7c-1.1289 2.1872-2.0461 5.5739-2.0461 5.5739s-.91722-3.3161-1.7639-5.5739l-4.7272-12.136h-7.9022z" fill="#5bcefa"/><path d="m67.488 75.326c2.54 0 4.7272-1.905 4.7272-4.7272 0-2.6811-2.1872-4.6567-4.7272-4.6567s-4.7272 1.9756-4.7272 4.6567c0 2.8222 2.1872 4.7272 4.7272 4.7272zm-3.5983 36.407h7.1967v-29.633h-7.1967z" fill="#f5a9b8"/><path d="m116.38 111.73h7.1967v-29.633h-7.1967z" fill="#f5a9b8"/><path d="m119.98 75.326c2.54 0 4.7272-1.905 4.7272-4.7272 0-2.6811-2.1872-4.6567-4.7272-4.6567s-4.7272 1.9756-4.7272 4.6567c0 2.8222 2.1872 4.7272 4.7272 4.7272z" fill="#fffffd"/></g></g></svg>