<svg height="32" viewBox="0 0 37.042 8.4667" width="140" xmlns="http://www.w3.org/2000/svg"><path d="m.79008 7.6242h.96203v-3.3623c0-.35243-.0381-.90488-.0381-.92393.028575.0381.33338.4953.5715.77153l1.6288 1.9622h.1143l1.6288-1.9622c.25718-.28575.56198-.75248.58103-.77153 0 .01905-.0381.5715-.0381.92393v3.3623h.96203v-6.5437h-.10478l-3.0671 3.6195-3.0956-3.6195h-.10478z" fill="#5bcefa"/><path d="m10.086 7.7195c.54293 0 .8382-.20003 1.0382-.381l-.40005-.65723c-.10478.085725-.24765.20955-.50483.20955-.24765 0-.40005-.13335-.40005-.60008v-1.8574h1.0668v-.80963h-1.0668v-1.5431h-.96203v1.5431h-.60008v.80963h.60008v1.8383c0 1.0668.52388 1.4478 1.2287 1.4478z" fill="#f5a9b8"/><path d="m12.134 7.6242h1.0097v-2.6099h2.7432v-.89535h-2.7432v-2.086h3.029v-.88583h-4.0386z"/><path d="m21.364 7.6909h.12382l1.6478-3.8576c.12382-.3048.27622-.762.28575-.78105.0095.028575.13335.47625.2667.78105l1.6097 3.8576h.12382l2.2384-6.5437h-.98108l-1.143 3.4481c-.12382.35243-.25718.89535-.25718.92393-.01905-.05715-.16192-.58103-.3048-.92393l-1.4954-3.5147h-.12382l-1.4859 3.5147c-.1524.36195-.3048.89535-.31432.92393-.0095-.0381-.13335-.5715-.24765-.92393l-1.143-3.4481h-1.0573z" fill="#f5a9b8"/><path d="m28.813 2.7093c.3429 0 .63818-.25718.63818-.63818 0-.36195-.29528-.62865-.63818-.62865s-.63818.2667-.63818.62865c0 .381.29528.63818.63818.63818zm-.48578 4.9149h.97155v-4.0005h-.97155z" fill="#f5a9b8"/><g fill="#5bcefa"><path d="m31.508 6.4431.50482-.52388 1.2097 1.705h1.1335l-1.6764-2.3336 1.4764-1.6669h-1.0954l-1.6002 1.8002c.01905-.20955.04763-.4572.04763-.70485v-3.9719h-.96203v6.8771h.96203z"/><path d="m35.613 2.7093c.3429 0 .63818-.25718.63818-.63818 0-.36195-.29528-.62865-.63818-.62865s-.63818.2667-.63818.62865c0 .381.29528.63818.63818.63818zm-.48578 4.9149h.97155v-4.0005h-.97155z"/></g></svg>