<?xml version="1.0" encoding="UTF-8" standalone="no"?>
<!-- Created with Inkscape (http://www.inkscape.org/) -->

<svg
   width="1500"
   height="500"
   viewBox="0 0 396.875 132.29167"
   version="1.1"
   id="svg5"
   xmlns="http://www.w3.org/2000/svg"
   xmlns:svg="http://www.w3.org/2000/svg">
  <defs
     id="defs2">
    <rect
       x="985.05479"
       y="-63.409064"
       width="101.70228"
       height="151.35942"
       id="rect11856" />
  </defs>
  <g
     id="layer1">
    <g
       aria-label="MtF.wiki"
       id="text1574"
       style="font-size:105.833px;line-height:1.25;direction:rtl;stroke-width:0.52916667;stroke:#000000;stroke-opacity:1;stroke-miterlimit:4;stroke-dasharray:none">
      <path
         d="M 21.061764,103.82238 H 31.750897 V 66.463331 c 0,-3.915821 -0.423332,-10.054135 -0.423332,-10.265801 0.317499,0.423332 3.704155,5.503316 6.34998,8.572473 l 18.097443,21.801598 h 1.269996 L 75.142427,64.770003 c 2.857491,-3.17499 6.244147,-8.360807 6.455813,-8.572473 0,0.211666 -0.423332,6.34998 -0.423332,10.265801 V 103.82238 H 91.864041 V 31.115109 H 90.699878 L 56.621652,71.331649 22.225927,31.115109 h -1.164163 z"
         style="font-family:'Neutraface 2 Text';-inkscape-font-specification:'Neutraface 2 Text';direction:ltr;fill:#5bcefa;fill-opacity:1;stroke:#000000;stroke-opacity:1;stroke-width:0.52916667;stroke-miterlimit:4;stroke-dasharray:none"
         id="path15004" />
      <path
         d="m 124.35459,104.88071 c 6.03248,0 9.3133,-2.22249 11.5358,-4.23332 l -4.44499,-7.302477 c -1.16416,0.952497 -2.75166,2.328326 -5.60915,2.328326 -2.75166,0 -4.44498,-1.481662 -4.44498,-6.667479 V 68.368325 h 11.85329 V 59.37252 H 121.39127 V 42.227574 H 110.70213 V 59.37252 h -6.66748 v 8.995805 h 6.66748 v 20.425769 c 0,11.853296 5.82082,16.086616 13.65246,16.086616 z"
         style="font-family:'Neutraface 2 Text';-inkscape-font-specification:'Neutraface 2 Text';direction:ltr;fill:#f5a9b8;fill-opacity:1;stroke:#000000;stroke-opacity:1;stroke-width:0.52916667;stroke-miterlimit:4;stroke-dasharray:none"
         id="path15006" />
      <path
         d="m 147.10866,103.82238 h 11.2183 V 74.824138 h 30.4799 v -9.948302 h -30.4799 V 41.698409 h 33.65489 V 31.85594 h -44.87319 z"
         style="font-family:'Neutraface 2 Text';-inkscape-font-specification:'Neutraface 2 Text';direction:ltr;fill:#ffffff;fill-opacity:1;stroke:#000000;stroke-opacity:1;stroke-width:0.52916667;stroke-miterlimit:4;stroke-dasharray:none"
         id="path15008" />
      <path
         d="m 203.30592,104.45738 c 3.80999,0 7.19665,-3.06916 7.19665,-7.302479 0,-4.23332 -3.38666,-7.196644 -7.19665,-7.196644 -3.91582,0 -7.30247,2.963324 -7.30247,7.196644 0,4.233319 3.38665,7.302479 7.30247,7.302479 z"
         style="font-family:'Neutraface 2 Text';-inkscape-font-specification:'Neutraface 2 Text';direction:ltr;fill:#ffffff;fill-opacity:1;stroke:#000000;stroke-opacity:1;stroke-width:0.52916667;stroke-miterlimit:4;stroke-dasharray:none"
         id="path15010" />
      <path
         d="m 229.34074,104.88071 h 1.16416 l 11.42997,-21.589932 c 1.37582,-2.645825 2.64582,-6.984978 2.75165,-7.40831 0.10584,0.423332 1.05833,4.762485 2.54,7.40831 l 11.00663,21.589932 h 1.16416 l 19.47327,-45.50819 h -10.68913 l -7.30248,19.04994 c -1.26999,3.280823 -2.64582,8.360807 -2.64582,8.360807 0,0 -1.5875,-5.185817 -3.17499,-8.360807 l -9.84247,-19.896604 h -1.05833 l -9.52497,19.04994 c -1.69333,3.280823 -3.06916,8.360807 -3.06916,8.360807 0,0 -1.37583,-4.974151 -2.64582,-8.360807 L 221.8266,59.37252 h -11.8533 z"
         style="font-family:'Neutraface 2 Text';-inkscape-font-specification:'Neutraface 2 Text';direction:ltr;fill:#f5a9b8;fill-opacity:1;stroke:#000000;stroke-opacity:1;stroke-width:0.52916667;stroke-miterlimit:4;stroke-dasharray:none"
         id="path15012" />
      <path
         d="m 293.15798,49.212552 c 3.80998,0 7.09081,-2.857491 7.09081,-7.090811 0,-4.021654 -3.28083,-6.984978 -7.09081,-6.984978 -3.80999,0 -7.09081,2.963324 -7.09081,6.984978 0,4.23332 3.28082,7.090811 7.09081,7.090811 z m -5.39749,54.609828 h 10.79497 V 59.37252 h -10.79497 z"
         style="font-family:'Neutraface 2 Text';-inkscape-font-specification:'Neutraface 2 Text';direction:ltr;fill:#f5a9b8;fill-opacity:1;stroke:#000000;stroke-opacity:1;stroke-width:0.52916667;stroke-miterlimit:4;stroke-dasharray:none"
         id="path15014" />
      <path
         d="m 323.10854,90.699088 5.60915,-5.820815 13.44079,18.944107 H 354.7526 L 336.126,77.893295 352.53011,59.37252 h -12.17079 l -17.77995,20.002437 c 0.21167,-2.328326 0.52917,-5.079984 0.52917,-7.831642 V 27.410954 H 312.4194 v 76.411426 h 10.68914 z"
         style="font-family:'Neutraface 2 Text';-inkscape-font-specification:'Neutraface 2 Text';direction:ltr;fill:#5bcefa;fill-opacity:1;stroke:#000000;stroke-opacity:1;stroke-width:0.52916667;stroke-miterlimit:4;stroke-dasharray:none"
         id="path15016" />
      <path
         d="m 368.72243,49.212552 c 3.80999,0 7.09081,-2.857491 7.09081,-7.090811 0,-4.021654 -3.28082,-6.984978 -7.09081,-6.984978 -3.80999,0 -7.09081,2.963324 -7.09081,6.984978 0,4.23332 3.28082,7.090811 7.09081,7.090811 z m -5.39748,54.609828 h 10.79496 V 59.37252 h -10.79496 z"
         style="font-family:'Neutraface 2 Text';-inkscape-font-specification:'Neutraface 2 Text';direction:ltr;fill:#5bcefa;fill-opacity:1;stroke:#000000;stroke-opacity:1;stroke-width:0.52916667;stroke-miterlimit:4;stroke-dasharray:none"
         id="path15018" />
    </g>
    <text
       xml:space="preserve"
       transform="scale(0.26458334)"
       id="text11854"
       style="line-height:1.25;font-family:sans-serif;font-size:40px;direction:rtl;white-space:pre;shape-inside:url(#rect11856)" />
  </g>
</svg>
