<svg height="500" viewBox="0 0 396.88 132.29" width="1500" xmlns="http://www.w3.org/2000/svg"><g stroke="#000" stroke-width=".52917"><path d="m21.062 103.82h10.689v-37.359c0-3.9158-.42333-10.054-.42333-10.266.3175.42333 3.7042 5.5033 6.35 8.5725l18.097 21.802h1.27l18.097-21.802c2.8575-3.175 6.2441-8.3608 6.4558-8.5725 0 .21167-.42333 6.35-.42333 10.266v37.359h10.689v-72.707h-1.1642l-34.078 40.217-34.396-40.217h-1.1642z" fill="#5bcefa"/><path d="m124.35 104.88c6.0325 0 9.3133-2.2225 11.536-4.2333l-4.445-7.3025c-1.1642.9525-2.7517 2.3283-5.6092 2.3283-2.7517 0-4.445-1.4817-4.445-6.6675v-20.637h11.853v-8.9958h-11.853v-17.145h-10.689v17.145h-6.6675v8.9958h6.6675v20.426c0 11.853 5.8208 16.087 13.652 16.087z" fill="#f5a9b8"/><path d="m147.11 103.82h11.218v-28.998h30.48v-9.9483h-30.48v-23.177h33.655v-9.8425h-44.873z" fill="#fff"/><path d="m203.31 104.46c3.81 0 7.1966-3.0692 7.1966-7.3025s-3.3867-7.1966-7.1966-7.1966c-3.9158 0-7.3025 2.9633-7.3025 7.1966s3.3866 7.3025 7.3025 7.3025z" fill="#fff"/><path d="m229.34 104.88h1.1642l11.43-21.59c1.3758-2.6458 2.6458-6.985 2.7516-7.4083.10584.42333 1.0583 4.7625 2.54 7.4083l11.007 21.59h1.1642l19.473-45.508h-10.689l-7.3025 19.05c-1.27 3.2808-2.6458 8.3608-2.6458 8.3608s-1.5875-5.1858-3.175-8.3608l-9.8425-19.897h-1.0583l-9.525 19.05c-1.6933 3.2808-3.0692 8.3608-3.0692 8.3608s-1.3758-4.9742-2.6458-8.3608l-7.0908-18.203h-11.853z" fill="#f5a9b8"/><path d="m293.16 49.213c3.81 0 7.0908-2.8575 7.0908-7.0908 0-4.0217-3.2808-6.985-7.0908-6.985s-7.0908 2.9633-7.0908 6.985c0 4.2333 3.2808 7.0908 7.0908 7.0908zm-5.3975 54.61h10.795v-44.45h-10.795z" fill="#f5a9b8"/><g fill="#5bcefa"><path d="m323.11 90.699 5.6092-5.8208 13.441 18.944h12.594l-18.627-25.929 16.404-18.521h-12.171l-17.78 20.002c.21167-2.3283.52917-5.08.52917-7.8316v-44.132h-10.689v76.411h10.689z"/><path d="m368.72 49.213c3.81 0 7.0908-2.8575 7.0908-7.0908 0-4.0217-3.2808-6.985-7.0908-6.985s-7.0908 2.9633-7.0908 6.985c0 4.2333 3.2808 7.0908 7.0908 7.0908zm-5.3975 54.61h10.795v-44.45h-10.795z"/></g></g></svg>