<svg height="512" viewBox="0 0 270.93 135.47" width="1024" xmlns="http://www.w3.org/2000/svg"><g stroke="#000" stroke-width=".79377"><path d="m10.759 71.5h7.1261v-24.906c0-2.6106-.28222-6.7028-.28222-6.8439.21167.28222 2.4694 3.6689 4.2333 5.715l12.065 14.534h.84667l12.065-14.534c1.905-2.1167 4.1628-5.5739 4.3039-5.715 0 .14111-.28222 4.2333-.28222 6.8439v24.906h7.1261v-48.472h-.77611l-22.719 26.811-22.931-26.811h-.77611z" fill="#5bcefa" stroke-width=".79377"/><path d="m266.53 100.82v43.199h-16.801v22.668h16.801v51.467c0 29.867 14.667 40.533 34.4 40.533 2.3911 0 4.6093-.1393 6.6738-.39258v164h26.934v-33.068l14.133-14.666 33.867 47.734h31.734l-46.934-65.334 41.332-46.666h-30.666l-44.801 50.398c.53334-5.8667 1.334-12.799 1.334-19.732v-111.2h-15.658l-.084-.13867c-.054.0442-.11514.0938-.16992.13867h-11.021v5.5137c-.9194.13305-1.8929.21289-2.9414.21289-6.9333 0-11.199-3.7322-11.199-16.799v-52h29.867v-22.668h-29.867v-43.199z" fill="#fffffd" stroke-width="3.0001" transform="scale(.26458)"/><g stroke-width=".79377"><path d="m94.79 71.5h7.4789v-19.332h20.32v-6.6322h-20.32v-15.452h22.437v-6.5617h-29.916z" fill="#f5a9b8"/><path d="m23.884 112.44h.77611l7.62-14.393c.91722-1.7639 1.7639-4.6567 1.8344-4.9389.07055.28222.70556 3.175 1.6933 4.9389l7.3378 14.393h.77611l12.982-30.339h-7.1261l-4.8683 12.7c-.84667 2.1872-1.7639 5.5739-1.7639 5.5739s-1.0583-3.4572-2.1167-5.5739l-6.5617-13.264h-.70556l-6.35 12.7c-1.1289 2.1872-2.0461 5.5739-2.0461 5.5739s-.91722-3.3161-1.7639-5.5739l-4.7272-12.136h-7.9022z" fill="#5bcefa"/><g fill="#f5a9b8"><path d="m67.488 75.326c2.54 0 4.7272-1.905 4.7272-4.7272 0-2.6811-2.1872-4.6567-4.7272-4.6567s-4.7272 1.9756-4.7272 4.6567c0 2.8222 2.1872 4.7272 4.7272 4.7272zm-3.5983 36.407h7.1967v-29.633h-7.1967z"/><path d="m116.38 111.73h7.1967v-29.633h-7.1967z"/><path d="m119.98 75.326c2.54 0 4.7272-1.905 4.7272-4.7272 0-2.6811-2.1872-4.6567-4.7272-4.6567s-4.7272 1.9756-4.7272 4.6567c0 2.8222 2.1872 4.7272 4.7272 4.7272z"/></g></g></g><g fill="#fff" stroke="#000" stroke-width=".79377" transform="translate(0 .37285)"><path d="m129.59 105.33q0-2.6458 1.905-4.445 1.905-1.905 4.445-1.905 2.6458 0 4.445 1.905 1.905 1.7992 1.905 4.5508 0 2.6458-1.905 4.5508-1.7992 1.7992-4.445 1.7992-2.54 0-4.445-1.905t-1.905-4.5508z"/><path d="m201.05 65.751-5.715 3.5983q-7.4083-9.8425-20.32-9.8425-10.16 0-17.039 6.5616-6.8791 6.4558-6.8791 16.087t6.7733 16.51 17.145 6.8791q12.382 0 20.32-9.8425l5.715 3.81q-4.2333 6.1383-11.43 9.4191-7.0908 3.2808-15.346 3.2808-13.017 0-21.802-8.5725-8.6783-8.5725-8.6783-20.955 0-12.382 8.7841-21.167 8.89-8.89 22.754-8.89 8.1491 0 15.028 3.4925 6.985 3.4925 10.689 9.6308z"/><path d="m210.79 54.109h7.3025v10.054q8.6783-11.536 21.061-11.536 6.35 0 11.43 3.4925 5.08 3.3867 7.1966 8.9958 2.1167 5.5033 2.1167 16.298v28.892h-7.1966v-26.776q0-9.8425-.9525-13.335-.84666-3.4925-2.7516-5.9266-1.7992-2.4342-4.6567-3.7042t-6.985-1.27q-4.0217 0-7.9375 2.0108t-6.6675 5.6091-3.7042 7.4083-.9525 15.346v20.637h-7.3025z"/></g><g stroke="#fff" stroke-width=".26458"><path d="m152.71 28.493c-.69991-1.1289-1.8965-1.8062-3.3641-1.8062-3.6576 0-6.0734 3.4318-6.0734 6.683 0 2.5739 1.6708 4.5156 4.2672 4.5156 1.5127 0 2.8448-.58702 3.9511-1.7611h.0452l-.22578 1.4676h1.8062l1.6708-10.612h-1.8062l-.22578 1.5127zm-4.651 7.7216c-1.8062 0-2.89-1.3772-2.89-3.2286 0-2.3707 1.7836-4.6284 4.1092-4.6284 1.9643 0 3.048 1.3095 3.048 3.0706 0 2.0546-1.3772 4.7865-4.2672 4.7865z"/><path d="m172.19 28.448c-.4064-1.1063-1.3321-1.7611-2.6642-1.7611-1.0386 0-2.0772.56444-2.7771 1.445h-.0452l.18062-1.1515h-1.8062l-1.6708 10.612h1.8062l.85795-5.509c.38383-2.4384 1.3321-3.7253 2.9351-3.7253 1.0386 0 1.5127.63218 1.5127 1.9191 0 .33867-.0452.8128-.11289 1.2644l-.94827 6.0508h1.8062l.90311-5.7348c.36124-2.3255 1.2869-3.4996 2.8448-3.4996 1.0386 0 1.603.45156 1.603 1.8062 0 .33867-.0452.69991-.11289 1.1515l-.99343 6.2766h1.8062l1.0386-6.5701c.0677-.45156.0903-.85796.0903-1.2418 0-2.0094-.85796-3.0932-2.7996-3.0932-1.3772 0-2.6868.65476-3.4544 1.7611z"/><path d="m185.6 22.759c0-.58702-.47413-1.0612-1.1063-1.0612-.79022 0-1.5127.76764-1.5127 1.4676 0 .65476.47413 1.1063 1.1063 1.1063.83538 0 1.5127-.74507 1.5127-1.5127zm-2.8448 4.222-1.6708 10.612h1.8062l1.6708-10.612z"/><path d="m194.05 27.184c-.47413-.29351-.92569-.49671-1.5579-.49671-.8128 0-1.5353.27093-2.5739 1.445h-.0452l.18062-1.1515h-1.8062l-1.6708 10.612h1.8062l.85796-5.4187c.4064-2.6642 1.3772-3.8156 2.6642-3.8156.47413 0 .67733.2032 1.016.47413z"/><path d="m201.61 27.184c-.47413-.29351-.92569-.49671-1.5579-.49671-.8128 0-1.5353.27093-2.5739 1.445h-.0452l.18062-1.1515h-1.8062l-1.6708 10.612h1.8062l.85796-5.4187c.4064-2.6642 1.3772-3.8156 2.6642-3.8156.47414 0 .67734.2032 1.016.47413z"/><path d="m212.42 32.309c.0452-.29351.0677-.58702.0677-.88053 0-2.6416-1.8288-4.7413-4.7639-4.7413-3.4318 0-6.525 3.048-6.525 6.5476 0 2.6642 1.9868 4.651 4.7413 4.651 3.1609 0 5.9831-2.5061 6.4798-5.5767zm-6.2089 3.906c-1.9191 0-3.1835-1.3547-3.1835-3.2286 0-2.5061 2.0094-4.6284 4.4027-4.6284 2.0546 0 3.2286 1.3998 3.2286 3.2512 0 2.5287-2.0546 4.6059-4.4478 4.6059z"/><path d="m221.46 27.184c-.47414-.29351-.92569-.49671-1.5579-.49671-.8128 0-1.5353.27093-2.5739 1.445h-.0452l.18063-1.1515h-1.8062l-1.6708 10.612h1.8062l.85796-5.4187c.4064-2.6642 1.3772-3.8156 2.6642-3.8156.47413 0 .67733.2032 1.016.47413z"/><path d="m235.81 28.652c-.31609-1.174-1.3772-1.9643-2.5287-1.9643-1.9417 0-3.6802 1.5579-3.6802 3.4996 0 .85796.4064 1.6708 2.2578 2.4384 1.0837.45156 1.8288.83538 1.8288 1.7385 0 .94827-.83538 1.8514-2.0094 1.8514-.99343 0-1.5353-.45156-1.874-1.6933l-1.7159.67733c.29351 1.6933 1.5579 2.6868 3.2964 2.6868 2.1449 0 4.1995-1.7159 4.1995-4.0414 0-.63218-.18063-1.1966-.79023-1.7159-.85795-.74507-1.8965-.92569-2.7545-1.4676-.47413-.29351-.65476-.63218-.65476-.94827 0-.72249.74507-1.3547 1.4901-1.3547.56444 0 1.0837.38382 1.2869 1.0837z"/><path d="m242.45 22.759c0-.58702-.47413-1.0612-1.1063-1.0612-.79022 0-1.5127.76764-1.5127 1.4676 0 .65476.47413 1.1063 1.1063 1.1063.83538 0 1.5127-.74507 1.5127-1.5127zm-2.8448 4.222-1.6708 10.612h1.8062l1.6708-10.612z"/><path d="m245.88 23.165-.6096 3.8156h-1.1063l-.24836 1.6708h1.1063l-1.4224 8.9408h1.8062l1.4224-8.9408h1.8965l.24836-1.6708h-1.8965l.6096-3.8156z"/><path d="m259.05 32.196c.0677-.36124.0903-.72249.0903-1.0612 0-2.619-1.5579-4.4478-4.2898-4.4478-3.8382 0-6.1412 3.5673-6.1412 6.8185 0 2.5964 1.7611 4.3801 4.4027 4.3801 2.1675 0 4.0866-1.0837 5.3961-2.9803l-1.3998-.88053c-1.0837 1.5127-2.2578 2.19-3.5899 2.19-1.7836 0-2.9351-1.2418-2.9351-2.9803 0-.18062.0226-.36124.0452-.56444h8.3312zm-8.1054-1.0612c.47413-1.5804 2.19-2.7771 3.6576-2.7771 1.5353 0 2.6642 1.1515 2.6868 2.7771z"/></g></svg>