<?xml version="1.0" encoding="UTF-8" standalone="no"?>
<!-- Created with Inkscape (http://www.inkscape.org/) -->

<svg
   width="140"
   height="32"
   viewBox="0 0 37.041697 8.4666706"
   version="1.1"
   id="svg5"
   xmlns="http://www.w3.org/2000/svg"
   xmlns:svg="http://www.w3.org/2000/svg">
  <defs
     id="defs2" />
  <g
     id="layer1">
    <g
       aria-label="MtF Wiki"
       id="text1574"
       style="font-size:9.52501px;line-height:1.25;direction:rtl;stroke-width:0.264583">
      <path
         d="M 0.79008045,7.6242394 H 1.7521065 V 4.2619109 c 0,-0.3524254 -0.0381,-0.904876 -0.0381,-0.923926 0.028575,0.0381 0.3333754,0.4953005 0.5715006,0.7715258 L 3.9142838,6.0716628 H 4.0285839 L 5.6573606,4.1095107 C 5.9145359,3.8237604 6.2193362,3.3570349 6.2383862,3.3379849 c 0,0.01905 -0.0381,0.5715006 -0.0381,0.923926 v 3.3623285 h 0.962026 V 1.0805575 H 7.0575371 L 3.9904838,4.7000613 0.89485556,1.0805575 H 0.79008045 Z"
         style="font-family:'Neutraface 2 Text';-inkscape-font-specification:'Neutraface 2 Text';direction:ltr;fill:#5bcefa;fill-opacity:1"
         id="path29808" />
      <path
         d="m 10.086474,7.7194895 c 0.542926,0 0.838201,-0.2000252 1.038226,-0.3810004 L 10.72465,6.6812634 c -0.104775,0.085725 -0.247651,0.2095503 -0.504826,0.2095503 -0.2476501,0 -0.4000503,-0.1333502 -0.4000503,-0.6000757 V 4.4333611 H 10.886575 V 3.6237352 H 9.8197737 V 2.0806836 H 8.8577477 V 3.6237352 H 8.2576721 V 4.4333611 H 8.8577477 V 6.271688 c 0,1.0668011 0.5238756,1.4478015 1.2287263,1.4478015 z"
         style="font-family:'Neutraface 2 Text';-inkscape-font-specification:'Neutraface 2 Text';direction:ltr;fill:#f5a9b8;fill-opacity:1"
         id="path29810" />
      <path
         d="M 12.134349,7.6242394 H 13.144 V 5.0143867 h 2.743203 V 4.1190357 H 13.144 V 2.0330585 h 3.028954 V 1.1472326 h -4.038605 z"
         style="font-family:'Neutraface 2 Text';-inkscape-font-specification:'Neutraface 2 Text';direction:ltr"
         id="path29812" />
      <path
         d="m 21.364065,7.6909145 h 0.123825 l 1.647827,-3.8576291 c 0.123825,-0.3048003 0.276225,-0.7620008 0.28575,-0.7810508 0.0095,0.028575 0.13335,0.4762505 0.2667,0.7810508 l 1.609727,3.8576291 h 0.123825 L 27.660097,1.1472326 H 26.67902 l -1.143001,3.4480536 c -0.123825,0.3524254 -0.257175,0.895351 -0.257175,0.923926 -0.01905,-0.05715 -0.161925,-0.5810256 -0.3048,-0.923926 L 23.478617,1.0805575 H 23.354792 L 21.86889,4.5952862 c -0.1524,0.3619504 -0.3048,0.895351 -0.314325,0.923926 -0.0095,-0.0381 -0.13335,-0.5715006 -0.24765,-0.923926 L 20.163914,1.1472326 h -1.057277 z"
         style="font-family:'Neutraface 2 Text';-inkscape-font-specification:'Neutraface 2 Text';direction:ltr;fill:#f5a9b8;fill-opacity:1"
         id="path29814" />
      <path
         d="m 28.812607,2.7093342 c 0.342901,0 0.638176,-0.2571752 0.638176,-0.6381756 0,-0.3619504 -0.295275,-0.6286507 -0.638176,-0.6286507 -0.3429,0 -0.638175,0.2667003 -0.638175,0.6286507 0,0.3810004 0.295275,0.6381756 0.638175,0.6381756 z m -0.485775,4.9149052 h 0.971551 V 3.6237352 h -0.971551 z"
         style="font-family:'Neutraface 2 Text';-inkscape-font-specification:'Neutraface 2 Text';direction:ltr;fill:#f5a9b8;fill-opacity:1"
         id="path29816" />
      <path
         d="m 31.508168,6.4431382 0.504825,-0.5238756 1.209676,1.7049768 h 1.133477 L 32.679744,5.290612 34.15612,3.6237352 h -1.095376 l -1.600202,1.8002269 c 0.01905,-0.2095502 0.04763,-0.4572005 0.04763,-0.7048507 V 0.74718215 H 30.546141 V 7.6242394 h 0.962027 z"
         style="font-family:'Neutraface 2 Text';-inkscape-font-specification:'Neutraface 2 Text';direction:ltr;fill:#5bcefa;fill-opacity:1"
         id="path29818" />
      <path
         d="m 35.613434,2.7093342 c 0.342901,0 0.638176,-0.2571752 0.638176,-0.6381756 0,-0.3619504 -0.295275,-0.6286507 -0.638176,-0.6286507 -0.3429,0 -0.638175,0.2667003 -0.638175,0.6286507 0,0.3810004 0.295275,0.6381756 0.638175,0.6381756 z M 35.127659,7.6242394 H 36.09921 V 3.6237352 h -0.971551 z"
         style="font-family:'Neutraface 2 Text';-inkscape-font-specification:'Neutraface 2 Text';direction:ltr;fill:#5bcefa;fill-opacity:1"
         id="path29820" />
    </g>
  </g>
</svg>
