<?xml version="1.0" encoding="UTF-8"?>
<svg width="267px" height="244px" viewBox="0 0 267 244" version="1.1" xmlns="http://www.w3.org/2000/svg" xmlns:xlink="http://www.w3.org/1999/xlink">
  <defs>
    <style>
      .cls-1 {
        fill: none;
      }

      .cls-2 {
        fill: #7acbf5;
      }

      .cls-2, .cls-3, .cls-4, .cls-5, .cls-6, .cls-7, .cls-8 {
        fill-rule: evenodd;
      }

      .cls-3 {
        fill: #eaacb8;
      }

      .cls-4 {
        fill: url(#_未命名的渐变);
      }

      .cls-5 {
        fill: #afbcd8;
      }

      .cls-6 {
        fill: rgba(122, 203, 245, .8);
      }

      .cls-7 {
        fill: rgba(234, 172, 184, .8);
      }

      .cls-8 {
        fill: rgba(175, 188, 216, .8);
      }

      .cls-9 {
        clip-path: url(#clippath);
      }
    </style>
    <radialGradient id="_未命名的渐变" data-name="未命名的渐变" cx="2.11" cy=".33" fx="2.11" fy=".33" r="1.09" gradientTransform="translate(-143.17 -187.71) rotate(43.49) scale(110.3 110.27) skewX(-.37)" gradientUnits="userSpaceOnUse">
      <stop offset="0" stop-color="#fff"/>
      <stop offset="0" stop-color="#ffebeb"/>
      <stop offset=".54" stop-color="#eaacb8"/>
      <stop offset="1" stop-color="#7acbf5"/>
    </radialGradient>
    <clipPath id="clippath">
      <circle class="cls-1" cx="146.01" cy="220.66" r="14.37"/>
    </clipPath>
  </defs>
  <g id="_编组-8" data-name=" 编组-8">
    <path id="_形状结合" data-name=" 形状结合" class="cls-4" d="M80.49,6.65L103.89.53c8.55-2.24,17.29,2.88,19.53,11.43.35,1.32.52,2.68.52,4.05v71.8c0,7.28-4.91,13.64-11.95,15.48l-23.39,6.12c-8.55,2.24-17.29-2.88-19.53-11.43-.35-1.32-.52-2.68-.52-4.05V22.13c0-7.28,4.91-13.64,11.95-15.48h-.01ZM20.05.53l23.39,6.12c7.04,1.84,11.95,8.2,11.95,15.48v71.8c0,8.84-7.16,16-16,16-1.37,0-2.73-.18-4.05-.52l-23.39-6.12c-7.04-1.84-11.95-8.2-11.95-15.48V16C0,7.17,7.16,0,16,0c1.37,0,2.73.18,4.05.52h0Z"/>
  </g>
  <g>
    <g>
      <path id="_矩形" data-name=" 矩形" class="cls-3" d="M253.28,164.18h-50.1c-7.38,0-13.27-5.59-13.27-12.47h0c0-6.89,5.89-12.47,13.27-12.47h50.1c7.28,0,13.27,5.59,13.27,12.47h0c0,6.89-5.99,12.47-13.27,12.47Z"/>
      <path id="_矩形-2" data-name=" 矩形-2" class="cls-7" d="M249.09,206.79h-42.81c-6.29,0-11.38-5.59-11.38-12.47h0c0-6.89,5.09-12.47,11.38-12.47h42.81c6.29,0,11.38,5.59,11.38,12.47h0c0,6.89-5.09,12.47-11.38,12.47h0Z"/>
      <path id="_矩形-3" data-name=" 矩形-3" class="cls-3" d="M189.82,230.14v-76.84c0-7.19,5.89-12.97,13.17-12.97s13.17,5.79,13.17,12.97v76.84c0,7.19-5.89,12.97-13.17,12.97s-13.17-5.79-13.17-12.97Z"/>
    </g>
    <g>
      <g class="cls-9">
        <g>
          <path class="cls-5" d="M144.61,152.7c7.19,0,12.97,5.79,12.97,12.97v55.98c0,7.19-5.79,12.97-12.97,12.97s-12.97-5.79-12.97-12.97v-55.98c0-7.19,5.79-12.97,12.97-12.97Z"/>
          <path class="cls-5" d="M131.74,223.45c0-6.49,6.29-11.68,14.07-11.68h8.28c7.78,0,14.07,5.19,14.07,11.68s-6.29,11.68-14.07,11.68h-8.28c-7.78,0-14.07-5.19-14.07-11.68Z"/>
        </g>
      </g>
      <path class="cls-5" d="M132.73,223.45c0-6.49,6.29-11.68,14.07-11.68h8.28c7.78,0,14.07,5.19,14.07,11.68s-6.29,11.68-14.07,11.68h-8.28c-7.78,0-14.07-5.19-14.07-11.68Z"/>
      <path id="_矩形-4" data-name=" 矩形-4" class="cls-8" d="M127.35,174.65h34.23c7.19,0,13.07,5.89,13.07,13.07s-5.89,13.07-13.07,13.07h-34.23c-7.19,0-13.07-5.89-13.07-13.07s5.89-13.07,13.07-13.07Z"/>
      <path class="cls-5" d="M144.61,151.5c7.19,0,12.97,5.79,12.97,12.97v55.98c0,7.19-5.79,12.97-12.97,12.97s-12.97-5.79-12.97-12.97v-55.98c0-7.19,5.79-12.97,12.97-12.97h0Z"/>
    </g>
    <g>
      <g>
        <path id="_矩形-5" data-name=" 矩形-5" class="cls-6" d="M41.72,201.8c5.59,4.49,13.67,3.79,18.46-1.6l35.93-40.62c4.39-4.99,3.99-12.67-1-17.06-.2-.2-.4-.3-.5-.5-5.59-4.49-13.67-3.79-18.46,1.6l-35.93,40.62c-4.39,4.99-3.99,12.67,1,17.06.2.2.4.3.5.5Z"/>
        <path id="_矩形-8" data-name=" 矩形-8" class="cls-2" d="M86.73,138.93c7.28,0,13.17,5.89,13.17,13.17v77.64c0,7.28-5.89,13.17-13.17,13.17s-13.17-5.89-13.17-13.17v-77.64c0-7.28,5.89-13.17,13.17-13.17Z"/>
      </g>
      <g>
        <path id="_矩形-6" data-name=" 矩形-6" class="cls-6" d="M13.28,138.93c7.28,0,13.17,5.89,13.17,13.17v77.64c0,7.28-5.89,13.17-13.17,13.17S.11,237.02.11,229.74v-77.64c0-7.28,5.89-13.17,13.17-13.17Z"/>
        <path id="_矩形-51" data-name=" 矩形-51" class="cls-2" d="M58.59,201.3c4.99-4.39,5.39-12.07,1-17.06l-35.93-40.62c-4.79-5.39-12.87-6.09-18.46-1.6-.2.2-.4.3-.5.5-4.99,4.39-5.39,12.07-1,17.06l35.93,40.62c4.79,5.39,12.87,6.09,18.46,1.6.2-.2.4-.3.5-.5Z"/>
      </g>
    </g>
  </g>
</svg>