<?xml version="1.0" encoding="UTF-8"?>
<svg id="_图层_1" data-name=" 图层 1" xmlns="http://www.w3.org/2000/svg" xmlns:xlink="http://www.w3.org/1999/xlink" viewBox="0 0 487.09 120.68">
  <defs>
    <style>
      .cls-1 {
        fill: none;
      }

      .cls-2 {
        fill: #7acbf5;
      }

      .cls-2, .cls-3, .cls-4, .cls-5, .cls-6, .cls-7, .cls-8 {
        fill-rule: evenodd;
      }

      .cls-3 {
        fill: #eaacb8;
      }

      .cls-4 {
        fill: url(#_未命名的渐变_2);
      }

      .cls-5 {
        fill: #afbcd8;
      }

      .cls-6 {
        fill: rgba(122, 203, 245, .8);
      }

      .cls-7 {
        fill: rgba(234, 172, 184, .8);
      }

      .cls-8 {
        fill: rgba(175, 188, 216, .8);
      }

      .cls-9 {
        clip-path: url(#clippath);
      }
    </style>
    <clipPath id="clippath">
      <circle class="cls-1" cx="346.38" cy="95.35" r="16.27"/>
    </clipPath>
    <radialGradient id="_未命名的渐变_2" data-name="未命名的渐变 2" cx="-350.05" cy="660.66" fx="-350.05" fy="660.66" r="1.09" gradientTransform="translate(-24565.7 86817.52) rotate(43.72) scale(120.68 -120.68)" gradientUnits="userSpaceOnUse">
      <stop offset="0" stop-color="#fff"/>
      <stop offset="0" stop-color="#ffebeb"/>
      <stop offset=".54" stop-color="#eaacb8"/>
      <stop offset="1" stop-color="#7acbf5"/>
    </radialGradient>
  </defs>
  <g>
    <g>
      <path id="_矩形" data-name=" 矩形" class="cls-3" d="M471.7,29.03h-58.12c-8.57,0-15.4-6.48-15.4-14.47h0c0-7.99,6.83-14.47,15.4-14.47h58.12c8.45,0,15.4,6.48,15.4,14.47h0c0,7.99-6.95,14.47-15.4,14.47Z"/>
      <path id="_矩形-2" data-name=" 矩形-2" class="cls-7" d="M466.83,78.47h-49.67c-7.29,0-13.2-6.48-13.2-14.47h0c0-7.99,5.9-14.47,13.2-14.47h49.67c7.29,0,13.2,6.48,13.2,14.47h0c0,7.99-5.9,14.47-13.2,14.47h0Z"/>
      <path id="_矩形-3" data-name=" 矩形-3" class="cls-3" d="M398.06,105.56V16.41c0-8.34,6.83-15.05,15.28-15.05s15.28,6.72,15.28,15.05v89.15c0,8.34-6.83,15.05-15.28,15.05s-15.28-6.72-15.28-15.05Z"/>
    </g>
    <g>
      <g class="cls-9">
        <g>
          <path class="cls-5" d="M344.8,18.42c8.13,0,14.68,6.55,14.68,14.68v63.37c0,8.13-6.55,14.68-14.68,14.68s-14.68-6.55-14.68-14.68v-63.37c0-8.13,6.55-14.68,14.68-14.68Z"/>
          <path class="cls-5" d="M330.23,98.51c0-7.34,7.12-13.22,15.93-13.22h9.38c8.81,0,15.93,5.87,15.93,13.22s-7.12,13.22-15.93,13.22h-9.38c-8.81,0-15.93-5.87-15.93-13.22Z"/>
        </g>
      </g>
      <path class="cls-5" d="M331.52,96.74c.86-7.48,8.79-12.62,17.77-11.59l9.55,1.1c8.97,1.03,15.53,7.85,14.67,15.32-.86,7.48-8.79,12.62-17.77,11.59l-9.55-1.1c-8.97-1.03-15.53-7.85-14.67-15.32Z"/>
      <path id="_矩形-4" data-name=" 矩形-4" class="cls-8" d="M325.13,41.56h39.71c8.34,0,15.17,6.83,15.17,15.17s-6.83,15.17-15.17,15.17h-39.71c-8.34,0-15.17-6.83-15.17-15.17s6.83-15.17,15.17-15.17Z"/>
      <path class="cls-5" d="M345.16,14.7c8.34,0,15.05,6.72,15.05,15.05v64.95c0,8.34-6.72,15.05-15.05,15.05s-15.05-6.72-15.05-15.05V29.75c0-8.34,6.72-15.05,15.05-15.05h0Z"/>
    </g>
    <g>
      <path id="_矩形-6" data-name=" 矩形-6" class="cls-6" d="M193.13.03c8.45,0,15.28,6.83,15.28,15.28v90.08c0,8.45-6.83,15.28-15.28,15.28s-15.28-6.83-15.28-15.28V15.31C177.85,6.86,184.68.03,193.13.03Z"/>
      <path id="_矩形-51" data-name=" 矩形-51" class="cls-2" d="M245.44,72.23c5.82-5.09,6.29-14.01,1.16-19.8L204.68,5.31c-5.59-6.25-15.02-7.06-21.54-1.85-.23.23-.47.35-.58.58-5.82,5.09-6.29,14.01-1.16,19.8l41.92,47.12c5.59,6.25,15.02,7.06,21.54,1.85.23-.23.47-.35.58-.58Z"/>
      <g>
        <path id="_矩形-6-2" data-name=" 矩形-6" class="cls-2" d="M277.35.03c-8.45,0-15.28,6.83-15.28,15.28v90.08c0,8.45,6.83,15.28,15.28,15.28s15.28-6.83,15.28-15.28V15.31c0-8.45-6.83-15.28-15.28-15.28Z"/>
        <path id="_矩形-51-2" data-name=" 矩形-51" class="cls-6" d="M225.04,72.23c-5.82-5.09-6.29-14.01-1.16-19.8l41.92-47.12c5.59-6.25,15.02-7.06,21.54-1.85.23.23.47.35.58.58,5.82,5.09,6.29,14.01,1.16,19.8l-41.92,47.12c-5.59,6.25-15.02,7.06-21.54,1.85-.23-.23-.47-.35-.58-.58Z"/>
      </g>
    </g>
  </g>
  <g id="_编组-8" data-name="编组-8">
    <path id="_形状结合" data-name="形状结合" class="cls-4" d="M86.61,7.95L114.95.53c8.55-2.24,17.29,2.87,19.53,11.42.35,1.32.52,2.69.52,4.05v81.25c0,7.27-4.91,13.63-11.95,15.48l-28.34,7.42c-8.55,2.24-17.29-2.87-19.53-11.42-.35-1.32-.52-2.69-.52-4.05V23.43c0-7.27,4.91-13.63,11.95-15.48ZM20.05.53l28.34,7.42c7.04,1.84,11.95,8.2,11.95,15.48v81.25c0,8.84-7.16,16-16,16-1.37,0-2.73-.18-4.05-.52l-28.34-7.42c-7.04-1.84-11.95-8.2-11.95-15.48V16C0,7.17,7.16,0,16,0c1.37,0,2.73.18,4.05.52Z"/>
  </g>
</svg>