<?xml version="1.0" encoding="UTF-8"?>
<svg width="499px" height="131px" viewBox="0 0 499 131" version="1.1" xmlns="http://www.w3.org/2000/svg" xmlns:xlink="http://www.w3.org/1999/xlink">
    <title>编组 2</title>
    <defs>
        <radialGradient cx="-5.37764278e-15%" cy="-4.33075445e-15%" fx="-5.37764278e-15%" fy="-4.33075445e-15%" r="109.183375%" gradientTransform="translate(-0.000000,-0.000000),scale(0.893901,1.000000),rotate(43.716462),translate(0.000000,0.000000)" id="radialGradient-1">
            <stop stop-color="#FFFFFF" offset="0%"></stop>
            <stop stop-color="#FFEBEB" offset="0%"></stop>
            <stop stop-color="#EAACB8" offset="54.1903409%"></stop>
            <stop stop-color="#7ACBF5" offset="100%"></stop>
        </radialGradient>
        <path d="M91.2087232,-4.95899482e-15 L91.2087232,28.2650949 L47.2090846,28.2654507 C45.1291896,39.2999711 35.4444164,47.6468743 23.8111269,47.6468743 C10.6606046,47.6468743 0,36.9807582 0,23.8234372 C0,10.6661161 10.6606046,-6.73535166e-15 23.8111269,-6.73535166e-15 C23.9459783,-6.73535166e-15 24.0805679,0.00112158269 24.2148868,0.00335593312 L91.2087232,-4.95899482e-15 Z" id="path-2"></path>
    </defs>
    <g id="MtF-Wiki-new-Logo" stroke="none" stroke-width="1" fill="none" fill-rule="evenodd">
        <g id="MtF-Wiki---横版" transform="translate(-64.000000, -36.000000)">
            <g id="编组-2" transform="translate(64.000000, 36.000000)">
                <g id="编组-8" transform="translate(0.000000, 8.668969)" fill="url(#radialGradient-1)">
                    <path d="M86.6101808,7.94901757 L114.945376,0.526186245 C123.493489,-1.71312059 132.23842,3.40117687 134.477727,11.9492893 C134.824477,13.2729382 135,14.6355996 135,16.003913 L135,97.2498848 C135,104.52485 130.092118,110.884034 123.054624,112.727612 L94.7194282,120.150443 C86.1713157,122.38975 77.4263845,117.275452 75.1870777,108.72734 C74.8403279,107.403691 74.6648045,106.04103 74.6648045,104.672716 L74.6648045,23.4267444 C74.6648045,16.1517796 79.572686,9.79259535 86.6101808,7.94901757 Z M20.0546237,0.526186245 L48.3898192,7.94901757 C55.427314,9.79259535 60.3351955,16.1517796 60.3351955,23.4267444 L60.3351955,104.672716 C60.3351955,113.509272 53.1717515,120.672716 44.3351955,120.672716 C42.9668821,120.672716 41.6042207,120.497193 40.2805718,120.150443 L11.9453763,112.727612 C4.90788152,110.884034 -8.85430612e-16,104.52485 0,97.2498848 L0,16.003913 C2.47054768e-15,7.16735704 7.163444,0.00391303717 16,0.00391303717 C17.3683134,0.00391303717 18.7309749,0.179436493 20.0546237,0.526186245 Z" id="形状结合"></path>
                </g>
                <g id="编组-6" transform="translate(189.019481, 0.000000)">
                    <g id="编组-4" transform="translate(62.492146, 64.853648) scale(-1, -1) rotate(90.000000) translate(-62.492146, -64.853648) translate(-2.361502, 2.361502)" fill="#7ACBF5">
                        <path d="M80.8142238,40.6800025 C88.7361361,40.9085853 95.1028452,47.2799386 95.3256512,55.2020154 L97.0066647,114.972017 C97.2137607,122.335507 91.4123568,128.47268 84.0488664,128.679776 C83.7956875,128.686896 83.5423571,128.686804 83.2891835,128.679499 C75.3672712,128.450916 69.0005621,122.079563 68.7777561,114.157486 L67.0967426,54.3874847 C66.8896466,47.0239944 72.6910505,40.8868215 80.0545409,40.6797256 C80.3077198,40.672605 80.5610502,40.6726973 80.8142238,40.6800025 Z" id="矩形" fill-opacity="0.8" transform="translate(82.051704, 84.679751) scale(-1, 1) rotate(50.000000) translate(-82.051704, -84.679751) "></path>
                        <rect id="矩形" x="-2.13162821e-14" y="91.0909862" width="121.073526" height="30.6878174" rx="15.3439087"></rect>
                        <path d="M60.8597975,-40.5113905 C69.3340043,-40.5113905 76.2037062,-33.6416886 76.2037062,-25.1674818 L76.2037062,65.2188161 C76.2037062,73.6930229 69.3340043,80.5627248 60.8597975,80.5627248 C52.3855908,80.5627248 45.5158888,73.6930229 45.5158888,65.2188161 L45.5158888,-25.1674818 C45.5158888,-33.6416886 52.3855908,-40.5113905 60.8597975,-40.5113905 Z" id="矩形" transform="translate(60.859798, 20.025667) rotate(90.000000) translate(-60.859798, -20.025667) "></path>
                        <path d="M82.427828,-4.67399413 C90.3500712,-4.43104701 96.7061804,1.95180671 96.9158612,9.87500018 L98.6450951,75.2174475 C98.8399537,82.5805573 93.028938,88.7075012 85.6658283,88.9023598 C85.411991,88.9090774 85.1580135,88.9085442 84.9042066,88.9007609 C76.9819634,88.6578137 70.6258542,82.27496 70.4161735,74.3517665 L68.6869396,9.00931921 C68.4920809,1.64620946 74.3030966,-4.48073448 81.6662064,-4.6755931 C81.9200437,-4.68231069 82.1740211,-4.68177749 82.427828,-4.67399413 Z" id="矩形" transform="translate(83.666017, 42.113383) rotate(50.000000) translate(-83.666017, -42.113383) "></path>
                    </g>
                    <g id="编组-4" transform="translate(268.008363, 69.439223) scale(-1, -1) translate(-268.008363, -69.439223) translate(226.036208, 8.871163)" fill="#EAACB8">
                        <rect id="矩形" x="0" y="92.0634521" width="83.9443116" height="29.0726691" rx="14.5363345"></rect>
                        <rect id="矩形" fill-opacity="0.8" x="0" y="46.0317261" width="83.9443116" height="29.0726691" rx="14.5363345"></rect>
                        <path d="M23.376251,45.2320806 L113.840412,45.2320806 C122.31024,45.2320806 129.176392,52.0982327 129.176392,60.5680606 C129.176392,69.0378885 122.31024,75.9040406 113.840412,75.9040406 L23.376251,75.9040406 C14.9064231,75.9040406 8.04027102,69.0378885 8.04027102,60.5680606 C8.04027102,52.0982327 14.9064231,45.2320806 23.376251,45.2320806 Z" id="矩形" transform="translate(68.608332, 60.568061) rotate(90.000000) translate(-68.608332, -60.568061) "></path>
                    </g>
                    <g id="编组-4" transform="translate(173.656181, 84.379345) scale(-1, -1) rotate(90.000000) translate(-173.656181, -84.379345) translate(128.051820, 51.183593)">
                        <g id="编组" transform="translate(-0.000000, -0.000000)">
                            <path d="M40.9956886,18.7188256 L78.4333398,18.7188256 C86.381664,18.7188256 92.825054,25.1622155 92.825054,33.1105398 C92.825054,41.0588641 86.381664,47.502254 78.4333398,47.502254 L40.9956886,47.502254 C33.0473643,47.502254 26.6039744,41.0588641 26.6039744,33.1105398 C26.6039744,25.1622155 33.0473643,18.7188256 40.9956886,18.7188256 Z" id="矩形" fill-opacity="0.8" fill="#AFBCD8" transform="translate(59.714514, 33.110540) rotate(90.000000) translate(-59.714514, -33.110540) "></path>
                            <g id="编组-9" transform="translate(0.000000, 18.744630)">
                                <g id="编组-10" transform="translate(0.000000, -0.000000)">
                                    <mask id="mask-3" fill="white">
                                        <use xlink:href="#path-2"></use>
                                    </mask>
                                    <g id="蒙版"></g>
                                    <g mask="url(#mask-3)" fill="#AFBCD8" id="矩形">
                                        <g transform="translate(0.000000, -0.000000)">
                                            <path d="M45.4635268,-30.7485972 C53.3397282,-30.7485972 59.724651,-24.3636744 59.724651,-16.487473 L59.724651,45.0097214 C59.724651,52.8859228 53.3397282,59.2708455 45.4635268,59.2708455 C37.5873254,59.2708455 31.2024026,52.8859228 31.2024026,45.0097214 L31.2024026,-16.487473 C31.2024026,-24.3636744 37.5873254,-30.7485972 45.4635268,-30.7485972 Z" transform="translate(45.463527, 14.261124) rotate(90.000000) translate(-45.463527, -14.261124) "></path>
                                            <path d="M15.4577409,0.299255107 C23.9948155,0.299255107 30.9154818,7.21992144 30.9154818,15.756996 L30.9154818,24.7726619 C30.9154818,33.3097365 23.9948155,40.2304028 15.4577409,40.2304028 C6.92066633,40.2304028 1.0454901e-15,33.3097365 0,24.7726619 L0,15.756996 C-1.0454901e-15,7.21992144 6.92066633,0.299255107 15.4577409,0.299255107 Z"></path>
                                        </g>
                                    </g>
                                </g>
                            </g>
                        </g>
                    </g>
                </g>
            </g>
        </g>
    </g>
</svg>