<?xml version="1.0" encoding="UTF-8" standalone="no"?>
<!-- Created with Inkscape (http://www.inkscape.org/) -->

<svg
   version="1.1"
   id="svg1"
   width="665.33331"
   height="174.66667"
   viewBox="0 0 665.33331 174.66667"
   xmlns="http://www.w3.org/2000/svg"
   xmlns:svg="http://www.w3.org/2000/svg">
  <defs
     id="defs1">
    <radialGradient
       fx="0"
       fy="0"
       cx="0"
       cy="0"
       r="1"
       gradientUnits="userSpaceOnUse"
       gradientTransform="matrix(95.23114,-91.057205,91.057221,95.231125,7.1648026,125.83832)"
       spreadMethod="pad"
       id="radialGradient4">
      <stop
         style="stop-opacity:1;stop-color:#ffebeb"
         offset="0"
         id="stop1" />
      <stop
         style="stop-opacity:1;stop-color:#ffebeb"
         offset="0"
         id="stop2" />
      <stop
         style="stop-opacity:1;stop-color:#eaacb8"
         offset="0.541903"
         id="stop3" />
      <stop
         style="stop-opacity:1;stop-color:#7acbf5"
         offset="1"
         id="stop4" />
    </radialGradient>
    <clipPath
       clipPathUnits="userSpaceOnUse"
       id="clipPath5">
      <path
         d="M 185.105,125.834 H 494.256 V 5.165 H 185.105 Z"
         transform="translate(-478.14861,-96.909802)"
         id="path5" />
    </clipPath>
    <clipPath
       clipPathUnits="userSpaceOnUse"
       id="clipPath6">
      <path
         d="m 410.603,47.608 h 75.861 v 28.866 h -75.861 z"
         transform="translate(-473.30191,-47.608101)"
         id="path6" />
    </clipPath>
    <clipPath
       clipPathUnits="userSpaceOnUse"
       id="clipPath7">
      <path
         d="M 185.105,125.835 H 494.256 V 5.1656 H 185.105 Z"
         transform="matrix(1.3333333,0,0,-1.3333333,0,174.66667)"
         id="path7" />
    </clipPath>
    <clipPath
       clipPathUnits="userSpaceOnUse"
       id="clipPath8">
      <path
         d="M 185.105,125.834 H 494.256 V 5.165 H 185.105 Z"
         transform="translate(-404.71711,-20.588301)"
         id="path8" />
    </clipPath>
    <clipPath
       clipPathUnits="userSpaceOnUse"
       id="clipPath9">
      <path
         d="m 336.954,30.779 c 0,-8.956 7.261,-16.222 16.22,-16.222 v 0 c 8.961,0 16.222,7.266 16.222,16.222 v 0 c 0,8.96 -7.261,16.224 -16.222,16.224 v 0 c -8.959,0 -16.22,-7.264 -16.22,-16.224"
         transform="translate(-351.59701,-107.4898)"
         id="path9" />
    </clipPath>
    <clipPath
       clipPathUnits="userSpaceOnUse"
       id="clipPath10">
      <path
         d="m 336.954,30.779 c 0,-8.956 7.261,-16.222 16.22,-16.222 v 0 c 8.961,0 16.222,7.266 16.222,16.222 v 0 c 0,8.96 -7.261,16.224 -16.222,16.224 v 0 c -8.959,0 -16.22,-7.264 -16.22,-16.224"
         transform="translate(-337.06681,-27.626998)"
         id="path10" />
    </clipPath>
    <clipPath
       clipPathUnits="userSpaceOnUse"
       id="clipPath11">
      <path
         d="M 185.105,125.834 H 494.256 V 5.165 H 185.105 Z"
         transform="translate(-338.36431,-29.384098)"
         id="path11" />
    </clipPath>
    <clipPath
       clipPathUnits="userSpaceOnUse"
       id="clipPath12">
      <path
         d="m 316.864,54.164 h 69.855 v 30.249 h -69.855 z"
         transform="translate(-331.99081,-84.413102)"
         id="path12" />
    </clipPath>
    <clipPath
       clipPathUnits="userSpaceOnUse"
       id="clipPath13">
      <path
         d="M 185.105,125.835 H 494.256 V 5.1656 H 185.105 Z"
         transform="matrix(1.3333333,0,0,-1.3333333,0,174.66667)"
         id="path13" />
    </clipPath>
    <clipPath
       clipPathUnits="userSpaceOnUse"
       id="clipPath14">
      <path
         d="M 185.105,125.834 H 494.256 V 5.165 H 185.105 Z"
         transform="translate(-351.96291,-111.2026)"
         id="path14" />
    </clipPath>
    <clipPath
       clipPathUnits="userSpaceOnUse"
       id="clipPath15">
      <path
         d="m 185.105,5.523 h 30.482 v 120.311 h -30.482 z"
         transform="translate(-200.34411,-125.8344)"
         id="path15" />
    </clipPath>
    <clipPath
       clipPathUnits="userSpaceOnUse"
       id="clipPath16">
      <path
         d="M 185.105,125.835 H 494.256 V 5.1656 H 185.105 Z"
         transform="matrix(1.3333333,0,0,-1.3333333,0,174.66667)"
         id="path16" />
    </clipPath>
    <clipPath
       clipPathUnits="userSpaceOnUse"
       id="clipPath17">
      <path
         d="M 185.105,125.834 H 494.256 V 5.165 H 185.105 Z"
         transform="translate(-252.5179,-53.828999)"
         id="path17" />
    </clipPath>
    <clipPath
       clipPathUnits="userSpaceOnUse"
       id="clipPath18">
      <path
         d="M 185.105,125.834 H 494.256 V 5.165 H 185.105 Z"
         transform="translate(-284.34051,-125.8344)"
         id="path18" />
    </clipPath>
    <clipPath
       clipPathUnits="userSpaceOnUse"
       id="clipPath19">
      <path
         d="m 227.472,49.832 h 72.107 v 76.002 h -72.107 z"
         transform="translate(-232.1707,-53.828999)"
         id="path19" />
    </clipPath>
    <clipPath
       clipPathUnits="userSpaceOnUse"
       id="clipPath20">
      <path
         d="M 185.105,125.835 H 494.256 V 5.1656 H 185.105 Z"
         transform="matrix(1.3333333,0,0,-1.3333333,0,174.66667)"
         id="path20" />
    </clipPath>
    <clipPath
       clipPathUnits="userSpaceOnUse"
       id="clipPath33">
      <path
         d="M 0,131 H 499 V 0 H 0 Z"
         transform="matrix(1.3333333,0,0,-1.3333333,0,174.66667)"
         id="path33" />
    </clipPath>
  </defs>
  <g
     id="layer-MC0">
    <path
       id="path4"
       d="M 122.11,125.312 93.775,117.889 C 86.738,116.046 81.83,109.687 81.83,102.412 v 0 -81.247 c 0,-1.368 0.175,-2.73 0.522,-4.054 v 0 C 84.591,8.563 93.336,3.449 101.885,5.688 v 0 l 28.334,7.422 c 7.038,1.844 11.946,8.204 11.946,15.479 v 0 81.245 c 0,1.369 -0.176,2.732 -0.522,4.055 v 0 c -1.884,7.189 -8.368,11.95 -15.468,11.95 v 0 c -1.341,-0.001 -2.706,-0.171 -4.065,-0.527 M 7.165,109.834 V 28.589 c 0,-7.275 4.908,-13.635 11.946,-15.479 v 0 L 47.445,5.688 C 48.769,5.342 50.132,5.166 51.5,5.166 v 0 c 8.837,0 16,7.163 16,15.999 v 0 81.247 c 0,7.275 -4.908,13.634 -11.946,15.477 v 0 l -28.334,7.423 c -1.324,0.347 -2.687,0.522 -4.055,0.522 v 0 c -8.837,0 -16,-7.163 -16,-16"
       transform="matrix(1.3333333,0,0,-1.3333333,0,174.66667)"
       style="fill:url(#radialGradient4);stroke:none" />
    <g
       id="g33"
       clip-path="url(#clipPath33)">
      <path
         d="m 0,0 h -57.962 c -8.543,0 -15.357,6.466 -15.357,14.433 0,7.967 6.814,14.433 15.357,14.433 H 0 C 8.43,28.866 15.36,22.4 15.36,14.433 15.36,6.466 8.43,0 0,0"
         style="fill:#eaacb8;fill-opacity:1;fill-rule:evenodd;stroke:none"
         transform="matrix(1.3333333,0,0,-1.3333333,637.53147,45.4536)"
         clip-path="url(#clipPath5)"
         id="path21" />
      <g
         opacity="0.800003"
         clip-path="url(#clipPath7)"
         id="g22">
        <path
           d="m 0,0 h -49.536 c -7.273,0 -13.163,6.466 -13.163,14.432 0,7.968 5.89,14.434 13.163,14.434 H 0 C 7.273,28.866 13.16,22.4 13.16,14.432 13.16,6.466 7.273,0 0,0"
           style="fill:#eaacb8;fill-opacity:1;fill-rule:evenodd;stroke:none"
           transform="matrix(1.3333333,0,0,-1.3333333,631.0692,111.1892)"
           clip-path="url(#clipPath6)"
           id="path22" />
      </g>
      <path
         d="m 0,0 v 88.908 c 0,8.313 6.809,15.01 15.239,15.01 8.43,0 15.239,-6.697 15.239,-15.01 V 0 c 0,-8.313 -6.809,-15.01 -15.239,-15.01 C 6.809,-15.01 0,-8.313 0,0"
         style="fill:#eaacb8;fill-opacity:1;fill-rule:evenodd;stroke:none"
         transform="matrix(1.3333333,0,0,-1.3333333,539.6228,147.2156)"
         clip-path="url(#clipPath8)"
         id="path23" />
      <path
         d="M 0,0 C 8.111,0 14.644,-6.532 14.644,-14.643 V -77.836 C 14.644,-85.947 8.111,-92.48 0,-92.48 c -8.111,0 -14.643,6.533 -14.643,14.644 v 63.193 C -14.643,-6.532 -8.111,0 0,0"
         style="fill:#afbcd8;fill-opacity:1;fill-rule:evenodd;stroke:none"
         transform="matrix(1.3333333,0,0,-1.3333333,468.796,31.346933)"
         clip-path="url(#clipPath9)"
         id="path24" />
      <path
         d="m 0,0 c 0,7.32 7.098,13.179 15.882,13.179 h 9.35 C 34.02,13.179 41.113,7.32 41.113,0 c 0,-7.323 -7.093,-13.182 -15.881,-13.182 h -9.35 C 7.098,-13.182 0,-7.323 0,0"
         style="fill:#afbcd8;fill-opacity:1;fill-rule:evenodd;stroke:none"
         transform="matrix(1.3333333,0,0,-1.3333333,449.4224,137.83067)"
         clip-path="url(#clipPath10)"
         id="path25" />
      <path
         d="m 0,0 c 0.857,7.457 8.769,12.59 17.712,11.562 l 9.521,-1.095 c 8.949,-1.028 15.49,-7.821 14.632,-15.278 -0.857,-7.456 -8.769,-12.59 -17.716,-11.562 l -9.521,1.095 C 5.679,-14.25 -0.862,-7.453 0,0"
         style="fill:#afbcd8;fill-opacity:1;fill-rule:evenodd;stroke:none"
         transform="matrix(1.3333333,0,0,-1.3333333,451.1524,135.48787)"
         clip-path="url(#clipPath11)"
         id="path26" />
      <g
         opacity="0.800003"
         clip-path="url(#clipPath13)"
         id="g27">
        <path
           d="m 0,0 h 39.602 c 8.313,0 15.127,-6.809 15.127,-15.122 0,-8.314 -6.814,-15.127 -15.127,-15.127 H 0 c -8.313,0 -15.126,6.813 -15.126,15.127 C -15.126,-6.809 -8.313,0 0,0"
           style="fill:#afbcd8;fill-opacity:1;fill-rule:evenodd;stroke:none"
           transform="matrix(1.3333333,0,0,-1.3333333,442.6544,62.115867)"
           clip-path="url(#clipPath12)"
           id="path27" />
      </g>
      <path
         d="m 0,0 c 8.313,0 15.01,-6.697 15.01,-15.01 v -64.775 c 0,-8.313 -6.697,-15.01 -15.01,-15.01 -8.313,0 -15.009,6.697 -15.009,15.01 V -15.01 C -15.009,-6.697 -8.313,0 0,0"
         style="fill:#afbcd8;fill-opacity:1;fill-rule:evenodd;stroke:none"
         transform="matrix(1.3333333,0,0,-1.3333333,469.28387,26.396533)"
         clip-path="url(#clipPath14)"
         id="path28" />
      <g
         opacity="0.800003"
         clip-path="url(#clipPath16)"
         id="g29">
        <path
           d="m 0,0 c 8.43,0 15.243,-6.813 15.243,-15.239 v -89.832 c 0,-8.429 -6.813,-15.244 -15.243,-15.244 -8.426,0 -15.239,6.815 -15.239,15.244 v 89.832 C -15.239,-6.813 -8.426,0 0,0"
           style="fill:#7acbf5;fill-opacity:1;fill-rule:evenodd;stroke:none"
           transform="matrix(1.3333333,0,0,-1.3333333,267.12547,6.8874667)"
           clip-path="url(#clipPath15)"
           id="path29" />
      </g>
      <path
         d="M 0,0 C 5.804,5.08 6.272,13.97 1.161,19.743 L -40.65,66.739 c -5.575,6.233 -14.983,7.042 -21.484,1.846 -0.234,-0.23 -0.464,-0.346 -0.581,-0.577 -5.808,-5.08 -6.272,-13.973 -1.161,-19.746 L -22.068,1.27 C -16.494,-4.967 -7.087,-5.773 -0.58,-0.576 -0.351,-0.347 -0.118,-0.23 0,0"
         style="fill:#7acbf5;fill-opacity:1;fill-rule:evenodd;stroke:none"
         transform="matrix(1.3333333,0,0,-1.3333333,336.69053,102.89467)"
         clip-path="url(#clipPath17)"
         id="path30" />
      <path
         d="m 0,0 c -8.43,0 -15.239,-6.813 -15.239,-15.239 v -89.832 c 0,-8.429 6.809,-15.244 15.239,-15.244 8.43,0 15.239,6.815 15.239,15.244 v 89.832 C 15.239,-6.813 8.43,0 0,0"
         style="fill:#7acbf5;fill-opacity:1;fill-rule:evenodd;stroke:none"
         transform="matrix(1.3333333,0,0,-1.3333333,379.12067,6.8874667)"
         clip-path="url(#clipPath18)"
         id="path31" />
      <g
         opacity="0.800003"
         clip-path="url(#clipPath20)"
         id="g32">
        <path
           d="m 0,0 c -5.808,5.08 -6.272,13.97 -1.161,19.743 l 41.807,46.996 c 5.575,6.233 14.983,7.042 21.488,1.846 0.23,-0.23 0.464,-0.346 0.581,-0.577 5.804,-5.08 6.268,-13.973 1.161,-19.746 L 22.064,1.27 C 16.49,-4.967 7.087,-5.773 0.58,-0.576 0.347,-0.347 0.117,-0.23 0,0"
           style="fill:#7acbf5;fill-opacity:1;fill-rule:evenodd;stroke:none"
           transform="matrix(1.3333333,0,0,-1.3333333,309.56093,102.89467)"
           clip-path="url(#clipPath19)"
           id="path32" />
      </g>
    </g>
  </g>
</svg>
