<?xml version="1.0" encoding="UTF-8" standalone="no"?>
<svg
   width="784.34869"
   height="103.248"
   viewBox="0 0 784.34869 103.248"
   version="1.1"
   id="svg5"
   xmlns:xlink="http://www.w3.org/1999/xlink"
   xmlns="http://www.w3.org/2000/svg"
   xmlns:svg="http://www.w3.org/2000/svg">
  <defs
     id="defs7">
    <linearGradient
       id="grad2"
       x1="0"
       y1="0"
       x2="1"
       y2="1">
      <stop
         offset="0%"
         style="stop-color:#5BCEFA;stop-opacity:1"
         id="stop2" />
      <stop
         offset="60%"
         style="stop-color:#F5A9B8;stop-opacity:1"
         id="stop4" />
    </linearGradient>
    <linearGradient
       xlink:href="#grad2"
       id="linearGradient197"
       x1="53.968897"
       y1="101.78955"
       x2="129.66306"
       y2="177.48371"
       gradientTransform="scale(0.75524983,1.3240652)"
       gradientUnits="userSpaceOnUse" />
    <linearGradient
       xlink:href="#grad2"
       id="linearGradient199"
       x1="139.35889"
       y1="103.06356"
       x2="216.00045"
       y2="179.70512"
       gradientTransform="scale(0.76470263,1.3076979)"
       gradientUnits="userSpaceOnUse" />
    <linearGradient
       xlink:href="#grad2"
       id="linearGradient201"
       x1="234.38702"
       y1="98.60861"
       x2="310.82661"
       y2="175.0482"
       gradientTransform="scale(0.74034935,1.3507137)"
       gradientUnits="userSpaceOnUse" />
    <linearGradient
       xlink:href="#grad2"
       id="linearGradient203"
       x1="317.50986"
       y1="100.47781"
       x2="393.11397"
       y2="176.08192"
       gradientTransform="scale(0.74472138,1.3427841)"
       gradientUnits="userSpaceOnUse" />
    <linearGradient
       xlink:href="#grad2"
       id="linearGradient205"
       x1="440.39419"
       y1="92.944124"
       x2="509.51059"
       y2="162.06052"
       gradientTransform="scale(0.68961925,1.4500755)"
       gradientUnits="userSpaceOnUse" />
    <linearGradient
       xlink:href="#grad2"
       id="linearGradient207"
       x1="487.08261"
       y1="98.483074"
       x2="563.42489"
       y2="174.82535"
       gradientTransform="scale(0.73940683,1.3524354)"
       gradientUnits="userSpaceOnUse" />
    <linearGradient
       xlink:href="#grad2"
       id="linearGradient209"
       x1="560.57361"
       y1="100.88817"
       x2="635.59747"
       y2="175.91203"
       gradientTransform="scale(0.74856184,1.335895)"
       gradientUnits="userSpaceOnUse" />
    <linearGradient
       xlink:href="#grad2"
       id="linearGradient211"
       x1="46.948693"
       y1="205.68683"
       x2="121.97255"
       y2="280.71069"
       gradientTransform="scale(0.74856184,1.335895)"
       gradientUnits="userSpaceOnUse" />
    <linearGradient
       xlink:href="#grad2"
       id="linearGradient213"
       x1="128.62508"
       y1="210.12194"
       x2="205.26664"
       y2="286.7635"
       gradientTransform="scale(0.76470266,1.3076978)"
       gradientUnits="userSpaceOnUse" />
    <linearGradient
       xlink:href="#grad2"
       id="linearGradient215"
       x1="215.33697"
       y1="207.82923"
       x2="291.14227"
       y2="283.63453"
       gradientTransform="scale(0.75635874,1.3221239)"
       gradientUnits="userSpaceOnUse" />
    <linearGradient
       xlink:href="#grad2"
       id="linearGradient217"
       x1="311.49756"
       y1="202.22966"
       x2="385.26043"
       y2="275.99253"
       gradientTransform="scale(0.73598007,1.3587324)"
       gradientUnits="userSpaceOnUse" />
    <linearGradient
       xlink:href="#grad2"
       id="linearGradient219"
       x1="395.07909"
       y1="202.24759"
       x2="471.36811"
       y2="278.53661"
       gradientTransform="scale(0.73992299,1.351492)"
       gradientUnits="userSpaceOnUse" />
  </defs>
  <g
     id="g455"
     transform="translate(-40.76,-204.376)">
    <g
       aria-label="Proyecto Trans"
       id="g439"
       transform="translate(0,71.184)">
      <path
         d="m 41.48,235 q -0.72,0 -0.72,-0.72 l 0.288,-98.928 q 0,-0.576 0.576,-0.576 h 27.648 q 13.248,0 20.88,8.064 7.776,8.064 7.776,21.888 0,10.224 -4.032,17.712 -4.032,7.488 -10.512,11.52 -6.48,4.032 -14.112,4.032 H 58.328 v 36.288 q 0,0.72 -0.72,0.72 z m 16.848,-54.432 h 10.944 q 4.608,0 7.92,-4.32 3.456,-4.464 3.456,-11.52 0,-5.616 -3.024,-9.216 -3.024,-3.6 -8.352,-3.6 l -10.944,0.144 z"
         id="path351"
         style="font-size:144px;font-family:Staatliches;fill:url(#linearGradient197)" />
      <path
         d="m 107.14411,235 q -0.576,0 -0.576,-0.72 l 0.288,-98.928 q 0,-0.576 0.576,-0.576 h 29.088 q 7.776,0 14.256,3.888 6.624,3.744 10.512,10.224 3.888,6.336 3.888,14.4 0,5.328 -1.584,9.648 -1.584,4.176 -3.744,7.2 -2.16,2.88 -3.888,4.32 7.776,8.64 7.776,20.304 l 0.144,29.52 q 0,0.72 -0.72,0.72 h -16.272 q -0.576,0 -0.576,-0.432 V 204.76 q 0,-5.184 -3.744,-8.928 -3.6,-3.888 -8.928,-3.888 h -9.504 l -0.144,42.336 q 0,0.72 -0.576,0.72 z m 16.992,-60.336 h 12.384 q 4.464,0 7.92,-3.312 3.456,-3.312 3.456,-8.064 0,-4.608 -3.456,-7.92 -3.312,-3.312 -7.92,-3.312 h -12.384 z"
         id="path353"
         style="font-size:144px;font-family:Staatliches;fill:url(#linearGradient199)" />
      <path
         d="m 201.89628,236.44 q -7.776,0 -14.256,-3.888 -6.336,-4.032 -10.224,-10.512 -3.888,-6.624 -3.888,-14.544 l 0.144,-45.648 q 0,-7.92 3.744,-14.4 3.888,-6.48 10.368,-10.368 6.48,-3.888 14.112,-3.888 7.776,0 14.112,3.888 6.336,3.888 10.08,10.368 3.888,6.48 3.888,14.4 l 0.144,45.648 q 0,7.92 -3.888,14.544 -3.744,6.48 -10.224,10.512 -6.336,3.888 -14.112,3.888 z m 0,-17.424 q 4.32,0 7.488,-3.456 3.312,-3.6 3.312,-8.064 l -0.144,-45.648 q 0,-4.752 -3.024,-8.064 -3.024,-3.312 -7.632,-3.312 -4.464,0 -7.632,3.312 -3.168,3.168 -3.168,8.064 v 45.648 q 0,4.752 3.168,8.208 3.168,3.312 7.632,3.312 z"
         id="path355"
         style="font-size:144px;font-family:Staatliches;fill:url(#linearGradient201)" />
      <path
         d="m 264.68038,236.44 q -8.064,0 -14.544,-3.744 -6.336,-3.888 -10.08,-10.512 -3.6,-6.768 -3.6,-15.12 v -6.624 q 0,-0.576 0.576,-0.576 h 16.272 q 0.576,0 0.576,0.72 v 6.48 q 0,5.328 3.024,8.64 3.024,3.312 7.776,3.312 4.32,0 7.488,-3.6 3.168,-3.6 3.168,-8.352 v -71.568 q 0,-0.576 0.576,-0.576 h 16.128 q 0.576,0 0.576,0.72 l 0.144,71.424 q 0,7.92 -3.888,14.688 -3.744,6.624 -10.08,10.656 -6.336,4.032 -14.112,4.032 z"
         id="path357"
         style="font-size:144px;font-family:Staatliches;fill:url(#linearGradient203)" />
      <path
         d="m 304.28031,235 q -0.576,0 -0.576,-0.72 l 0.144,-98.928 q 0,-0.576 0.576,-0.576 h 46.224 q 0.576,0 0.576,0.72 v 16.128 q 0,0.576 -0.576,0.576 h -29.52 v 22.464 h 29.52 q 0.576,0 0.576,0.576 l 0.144,16.272 q 0,0.576 -0.576,0.576 h -29.664 v 25.2 h 29.664 q 0.576,0 0.576,0.72 v 16.416 q 0,0.576 -0.576,0.576 z"
         id="path359"
         style="font-size:144px;font-family:Staatliches;fill:url(#linearGradient205)" />
      <path
         d="m 388.37621,236.44 q -7.92,0 -14.4,-3.888 -6.336,-4.032 -10.08,-10.656 -3.744,-6.624 -3.744,-14.832 l 0.144,-44.928 q 0,-7.92 3.6,-14.4 3.744,-6.624 10.08,-10.512 6.48,-4.032 14.4,-4.032 7.92,0 14.256,3.888 6.336,3.888 10.08,10.512 3.744,6.48 3.744,14.544 v 6.624 q 0,0.576 -0.576,0.576 h -16.128 q -0.576,0 -0.576,-0.576 v -6.624 q 0,-4.752 -3.168,-8.208 -3.024,-3.456 -7.632,-3.456 -5.184,0 -7.92,3.6 -2.736,3.456 -2.736,8.064 v 44.928 q 0,5.328 3.024,8.64 3.168,3.312 7.632,3.312 4.608,0 7.632,-3.6 3.168,-3.744 3.168,-8.352 v -6.624 q 0,-0.576 0.576,-0.576 h 16.272 q 0.576,0 0.576,0.576 v 6.624 q 0,8.208 -3.888,14.832 -3.744,6.624 -10.08,10.656 -6.336,3.888 -14.256,3.888 z"
         id="path361"
         style="font-size:144px;font-family:Staatliches;fill:url(#linearGradient207)" />
      <path
         d="m 439.64001,235 q -0.576,0 -0.576,-0.72 V 152.2 h -18.72 q -0.72,0 -0.72,-0.72 l 0.144,-16.128 q 0,-0.576 0.576,-0.576 h 54.72 q 0.72,0 0.72,0.576 v 16.128 q 0,0.72 -0.576,0.72 h -18.864 l 0.144,82.08 q 0,0.72 -0.576,0.72 z"
         id="path363"
         style="font-size:144px;font-family:Staatliches;fill:url(#linearGradient209)" />
    </g>
    <g
       id="g430"
       transform="translate(476.33258,-68.888)">
      <path
         d="m 55.16,375 q -0.576,0 -0.576,-0.72 V 292.2 h -18.72 q -0.72,0 -0.72,-0.72 l 0.144,-16.128 q 0,-0.576 0.576,-0.576 h 54.72 q 0.72,0 0.72,0.576 v 16.128 q 0,0.72 -0.576,0.72 H 71.864 l 0.144,82.08 q 0,0.72 -0.576,0.72 z"
         id="path365"
         style="font-size:144px;font-family:Staatliches;fill:url(#linearGradient211)" />
      <path
         d="m 98.935945,375 q -0.576,0 -0.576,-0.72 l 0.288,-98.928 q 0,-0.576 0.576,-0.576 h 29.088005 q 7.776,0 14.256,3.888 6.624,3.744 10.512,10.224 3.888,6.336 3.888,14.4 0,5.328 -1.584,9.648 -1.584,4.176 -3.744,7.2 -2.16,2.88 -3.888,4.32 7.776,8.64 7.776,20.304 l 0.144,29.52 q 0,0.72 -0.72,0.72 h -16.272 q -0.576,0 -0.576,-0.432 V 344.76 q 0,-5.184 -3.744,-8.928 -3.6,-3.888 -8.928,-3.888 h -9.504 l -0.144,42.336 q 0,0.72 -0.576,0.72 z m 16.992005,-60.336 h 12.384 q 4.464,0 7.92,-3.312 3.456,-3.312 3.456,-8.064 0,-4.608 -3.456,-7.92 -3.312,-3.312 -7.92,-3.312 h -12.384 z"
         id="path367"
         style="font-size:144px;font-family:Staatliches;fill:url(#linearGradient213)" />
      <path
         d="m 162.872,374.28 17.856,-98.928 q 0.144,-0.576 0.72,-0.576 h 20.88 q 0.576,0 0.72,0.576 l 17.136,98.928 q 0.144,0.72 -0.576,0.72 h -15.984 q -0.576,0 -0.72,-0.72 l -1.584,-10.512 h -19.584 l -1.584,10.512 q -0.144,0.72 -0.72,0.72 h -15.984 q -0.576,0 -0.576,-0.72 z m 21.744,-25.92 h 13.824 l -5.904,-40.464 -0.864,-5.328 -0.576,5.328 z"
         id="path369"
         style="font-size:144px;font-family:Staatliches;fill:url(#linearGradient215)" />
      <path
         d="m 230.552,375 q -1.152,0 -1.152,-1.008 l -0.144,-98.064 q 0,-1.152 1.152,-1.152 h 12.96 l 24.336,56.736 -0.72,-55.584 q 0,-1.152 1.296,-1.152 h 14.256 q 0.864,0 0.864,1.152 l 0.144,98.208 q 0,0.864 -0.72,0.864 h -12.672 l -24.912,-52.992 1.008,51.84 q 0,1.152 -1.296,1.152 z"
         id="path371"
         style="font-size:144px;font-family:Staatliches;fill:url(#linearGradient217)" />
      <path
         d="m 320.5521,376.44 q -7.776,0 -14.256,-3.888 -6.336,-4.032 -10.224,-10.512 -3.744,-6.624 -3.744,-14.544 v -6.624 q 0,-0.72 0.72,-0.72 h 16.128 q 0.576,0 0.576,0.72 v 6.624 q 0,4.752 3.168,8.208 3.168,3.312 7.632,3.312 4.464,0 7.632,-3.456 3.168,-3.456 3.168,-8.064 0,-5.328 -6.912,-9.216 -2.304,-1.296 -7.2,-4.032 -4.896,-2.736 -9.216,-5.184 -7.92,-4.608 -11.808,-11.52 -3.744,-7.056 -3.744,-15.84 0,-8.064 3.888,-14.4 3.888,-6.48 10.224,-10.224 6.48,-3.744 13.968,-3.744 7.632,0 13.968,3.888 6.48,3.744 10.224,10.224 3.888,6.336 3.888,14.256 v 11.808 q 0,0.576 -0.576,0.576 h -16.128 q -0.576,0 -0.576,-0.576 l -0.144,-11.808 q 0,-5.04 -3.168,-8.208 -3.168,-3.168 -7.488,-3.168 -4.464,0 -7.632,3.456 -3.168,3.312 -3.168,7.92 0,4.752 2.016,7.92 2.016,3.168 7.344,6.048 0.72,0.432 2.736,1.584 2.16,1.008 4.608,2.448 2.448,1.296 4.32,2.304 2.016,1.008 2.448,1.296 7.2,4.032 11.376,9.936 4.176,5.76 4.176,14.256 0,8.208 -3.888,14.832 -3.744,6.48 -10.224,10.368 -6.336,3.744 -14.112,3.744 z"
         id="path373"
         style="font-size:144px;font-family:Staatliches;fill:url(#linearGradient219)" />
    </g>
  </g>
</svg>
